<?xml version='1.0' encoding='UTF-8'?>
<svg xmlns="http://www.w3.org/2000/svg" viewBox="0 0 740 250" width="740" height="250">
<defs><style>
.ts{fill:white;stroke:#555;stroke-width:0.8}
.tl{font-family:Arial,Helvetica,sans-serif;font-size:10px;text-anchor:middle;fill:#333}
.sl{font-family:Arial,Helvetica,sans-serif;font-size:12px;font-weight:bold;fill:#666;text-anchor:middle}
.xm{stroke:#C62828;stroke-width:2;stroke-linecap:round}
</style></defs>
<rect x="0" y="0" width="740" height="250" fill="white" />

<line x1="370" y1="20" x2="370" y2="230" stroke="#333" stroke-width="1.5" />
<line x1="44" y1="120" x2="696" y2="120" stroke="#333" stroke-width="1.5" />

<text x="30" y="60" class="sl">R</text>
<text x="710" y="60" class="sl">L</text>
<text x="30" y="185" class="sl">R</text>
<text x="710" y="185" class="sl">L</text>

<text x="66" y="16" class="tl">18</text>
<text x="106" y="16" class="tl">17</text>
<text x="146" y="16" class="tl">16</text>
<text x="186" y="16" class="tl">15</text>
<text x="226" y="16" class="tl">14</text>
<text x="266" y="16" class="tl">13</text>
<text x="306" y="16" class="tl">12</text>
<text x="346" y="16" class="tl">11</text>
<text x="394" y="16" class="tl">21</text>
<text x="434" y="16" class="tl">22</text>
<text x="474" y="16" class="tl">23</text>
<text x="514" y="16" class="tl">24</text>
<text x="554" y="16" class="tl">25</text>
<text x="594" y="16" class="tl">26</text>
<text x="634" y="16" class="tl">27</text>
<text x="674" y="16" class="tl">28</text>

<text x="66" y="225" class="tl">48</text>
<text x="106" y="225" class="tl">47</text>
<text x="146" y="225" class="tl">46</text>
<text x="186" y="225" class="tl">45</text>
<text x="226" y="225" class="tl">44</text>
<text x="266" y="225" class="tl">43</text>
<text x="306" y="225" class="tl">42</text>
<text x="346" y="225" class="tl">41</text>
<text x="394" y="225" class="tl">31</text>
<text x="434" y="225" class="tl">32</text>
<text x="474" y="225" class="tl">33</text>
<text x="514" y="225" class="tl">34</text>
<text x="554" y="225" class="tl">35</text>
<text x="594" y="225" class="tl">36</text>
<text x="634" y="225" class="tl">37</text>
<text x="674" y="225" class="tl">38</text>



<g id="tooth-18" transform="translate(48.0, 24)">
<polygon id="tooth-18-outside" points="0,0 36,0 24,12 12,12" class="ts" />
<polygon id="tooth-18-far" points="0,0 12,12 12,24 0,36" class="ts" />
<rect id="tooth-18-chew" x="12" y="12" width="12" height="12" class="ts" />
<polygon id="tooth-18-near" points="36,0 36,36 24,24 24,12" class="ts" />
<polygon id="tooth-18-inside" points="0,36 12,24 24,24 36,36" class="ts" />
<line id="tooth-18-x1" x1="3" y1="3" x2="33" y2="33" class="xm" visibility="hidden" />
<line id="tooth-18-x2" x1="33" y1="3" x2="3" y2="33" class="xm" visibility="hidden" />
</g>
<g id="tooth-17" transform="translate(88.0, 24)">
<polygon id="tooth-17-outside" points="0,0 36,0 24,12 12,12" class="ts" />
<polygon id="tooth-17-far" points="0,0 12,12 12,24 0,36" class="ts" />
<rect id="tooth-17-chew" x="12" y="12" width="12" height="12" class="ts" />
<polygon id="tooth-17-near" points="36,0 36,36 24,24 24,12" class="ts" />
<polygon id="tooth-17-inside" points="0,36 12,24 24,24 36,36" class="ts" />
<line id="tooth-17-x1" x1="3" y1="3" x2="33" y2="33" class="xm" visibility="hidden" />
<line id="tooth-17-x2" x1="33" y1="3" x2="3" y2="33" class="xm" visibility="hidden" />
</g>
<g id="tooth-16" transform="translate(128.0, 24)">
<polygon id="tooth-16-outside" points="0,0 36,0 24,12 12,12" class="ts" />
<polygon id="tooth-16-far" points="0,0 12,12 12,24 0,36" class="ts" />
<rect id="tooth-16-chew" x="12" y="12" width="12" height="12" class="ts" />
<polygon id="tooth-16-near" points="36,0 36,36 24,24 24,12" class="ts" />
<polygon id="tooth-16-inside" points="0,36 12,24 24,24 36,36" class="ts" />
<line id="tooth-16-x1" x1="3" y1="3" x2="33" y2="33" class="xm" visibility="hidden" />
<line id="tooth-16-x2" x1="33" y1="3" x2="3" y2="33" class="xm" visibility="hidden" />
</g>
<g id="tooth-15" transform="translate(168.0, 24)">
<polygon id="tooth-15-outside" points="0,0 36,0 24,12 12,12" class="ts" />
<polygon id="tooth-15-far" points="0,0 12,12 12,24 0,36" class="ts" />
<rect id="tooth-15-chew" x="12" y="12" width="12" height="12" class="ts" />
<polygon id="tooth-15-near" points="36,0 36,36 24,24 24,12" class="ts" />
<polygon id="tooth-15-inside" points="0,36 12,24 24,24 36,36" class="ts" />
<line id="tooth-15-x1" x1="3" y1="3" x2="33" y2="33" class="xm" visibility="hidden" />
<line id="tooth-15-x2" x1="33" y1="3" x2="3" y2="33" class="xm" visibility="hidden" />
</g>
<g id="tooth-14" transform="translate(208.0, 24)">
<polygon id="tooth-14-outside" points="0,0 36,0 24,12 12,12" class="ts" />
<polygon id="tooth-14-far" points="0,0 12,12 12,24 0,36" class="ts" />
<rect id="tooth-14-chew" x="12" y="12" width="12" height="12" class="ts" />
<polygon id="tooth-14-near" points="36,0 36,36 24,24 24,12" class="ts" />
<polygon id="tooth-14-inside" points="0,36 12,24 24,24 36,36" class="ts" />
<line id="tooth-14-x1" x1="3" y1="3" x2="33" y2="33" class="xm" visibility="hidden" />
<line id="tooth-14-x2" x1="33" y1="3" x2="3" y2="33" class="xm" visibility="hidden" />
</g>
<g id="tooth-13" transform="translate(248.0, 24)">
<polygon id="tooth-13-outside" points="0,0 36,0 24,12 12,12" class="ts" />
<polygon id="tooth-13-far" points="0,0 12,12 12,24 0,36" class="ts" />
<rect id="tooth-13-chew" x="12" y="12" width="12" height="12" class="ts" />
<polygon id="tooth-13-near" points="36,0 36,36 24,24 24,12" class="ts" />
<polygon id="tooth-13-inside" points="0,36 12,24 24,24 36,36" class="ts" />
<line id="tooth-13-x1" x1="3" y1="3" x2="33" y2="33" class="xm" visibility="hidden" />
<line id="tooth-13-x2" x1="33" y1="3" x2="3" y2="33" class="xm" visibility="hidden" />
</g>
<g id="tooth-12" transform="translate(288.0, 24)">
<polygon id="tooth-12-outside" points="0,0 36,0 24,12 12,12" class="ts" />
<polygon id="tooth-12-far" points="0,0 12,12 12,24 0,36" class="ts" />
<rect id="tooth-12-chew" x="12" y="12" width="12" height="12" class="ts" />
<polygon id="tooth-12-near" points="36,0 36,36 24,24 24,12" class="ts" />
<polygon id="tooth-12-inside" points="0,36 12,24 24,24 36,36" class="ts" />
<line id="tooth-12-x1" x1="3" y1="3" x2="33" y2="33" class="xm" visibility="hidden" />
<line id="tooth-12-x2" x1="33" y1="3" x2="3" y2="33" class="xm" visibility="hidden" />
</g>
<g id="tooth-11" transform="translate(328.0, 24)">
<polygon id="tooth-11-outside" points="0,0 36,0 24,12 12,12" class="ts" />
<polygon id="tooth-11-far" points="0,0 12,12 12,24 0,36" class="ts" />
<rect id="tooth-11-chew" x="12" y="12" width="12" height="12" class="ts" />
<polygon id="tooth-11-near" points="36,0 36,36 24,24 24,12" class="ts" />
<polygon id="tooth-11-inside" points="0,36 12,24 24,24 36,36" class="ts" />
<line id="tooth-11-x1" x1="3" y1="3" x2="33" y2="33" class="xm" visibility="hidden" />
<line id="tooth-11-x2" x1="33" y1="3" x2="3" y2="33" class="xm" visibility="hidden" />
</g>



<g id="tooth-21" transform="translate(376.0, 24)">
<polygon id="tooth-21-outside" points="0,0 36,0 24,12 12,12" class="ts" />
<polygon id="tooth-21-near" points="0,0 12,12 12,24 0,36" class="ts" />
<rect id="tooth-21-chew" x="12" y="12" width="12" height="12" class="ts" />
<polygon id="tooth-21-far" points="36,0 36,36 24,24 24,12" class="ts" />
<polygon id="tooth-21-inside" points="0,36 12,24 24,24 36,36" class="ts" />
<line id="tooth-21-x1" x1="3" y1="3" x2="33" y2="33" class="xm" visibility="hidden" />
<line id="tooth-21-x2" x1="33" y1="3" x2="3" y2="33" class="xm" visibility="hidden" />
</g>
<g id="tooth-22" transform="translate(416.0, 24)">
<polygon id="tooth-22-outside" points="0,0 36,0 24,12 12,12" class="ts" />
<polygon id="tooth-22-near" points="0,0 12,12 12,24 0,36" class="ts" />
<rect id="tooth-22-chew" x="12" y="12" width="12" height="12" class="ts" />
<polygon id="tooth-22-far" points="36,0 36,36 24,24 24,12" class="ts" />
<polygon id="tooth-22-inside" points="0,36 12,24 24,24 36,36" class="ts" />
<line id="tooth-22-x1" x1="3" y1="3" x2="33" y2="33" class="xm" visibility="hidden" />
<line id="tooth-22-x2" x1="33" y1="3" x2="3" y2="33" class="xm" visibility="hidden" />
</g>
<g id="tooth-23" transform="translate(456.0, 24)">
<polygon id="tooth-23-outside" points="0,0 36,0 24,12 12,12" class="ts" />
<polygon id="tooth-23-near" points="0,0 12,12 12,24 0,36" class="ts" />
<rect id="tooth-23-chew" x="12" y="12" width="12" height="12" class="ts" />
<polygon id="tooth-23-far" points="36,0 36,36 24,24 24,12" class="ts" />
<polygon id="tooth-23-inside" points="0,36 12,24 24,24 36,36" class="ts" />
<line id="tooth-23-x1" x1="3" y1="3" x2="33" y2="33" class="xm" visibility="hidden" />
<line id="tooth-23-x2" x1="33" y1="3" x2="3" y2="33" class="xm" visibility="hidden" />
</g>
<g id="tooth-24" transform="translate(496.0, 24)">
<polygon id="tooth-24-outside" points="0,0 36,0 24,12 12,12" class="ts" />
<polygon id="tooth-24-near" points="0,0 12,12 12,24 0,36" class="ts" />
<rect id="tooth-24-chew" x="12" y="12" width="12" height="12" class="ts" />
<polygon id="tooth-24-far" points="36,0 36,36 24,24 24,12" class="ts" />
<polygon id="tooth-24-inside" points="0,36 12,24 24,24 36,36" class="ts" />
<line id="tooth-24-x1" x1="3" y1="3" x2="33" y2="33" class="xm" visibility="hidden" />
<line id="tooth-24-x2" x1="33" y1="3" x2="3" y2="33" class="xm" visibility="hidden" />
</g>
<g id="tooth-25" transform="translate(536.0, 24)">
<polygon id="tooth-25-outside" points="0,0 36,0 24,12 12,12" class="ts" />
<polygon id="tooth-25-near" points="0,0 12,12 12,24 0,36" class="ts" />
<rect id="tooth-25-chew" x="12" y="12" width="12" height="12" class="ts" />
<polygon id="tooth-25-far" points="36,0 36,36 24,24 24,12" class="ts" />
<polygon id="tooth-25-inside" points="0,36 12,24 24,24 36,36" class="ts" />
<line id="tooth-25-x1" x1="3" y1="3" x2="33" y2="33" class="xm" visibility="hidden" />
<line id="tooth-25-x2" x1="33" y1="3" x2="3" y2="33" class="xm" visibility="hidden" />
</g>
<g id="tooth-26" transform="translate(576.0, 24)">
<polygon id="tooth-26-outside" points="0,0 36,0 24,12 12,12" class="ts" />
<polygon id="tooth-26-near" points="0,0 12,12 12,24 0,36" class="ts" />
<rect id="tooth-26-chew" x="12" y="12" width="12" height="12" class="ts" />
<polygon id="tooth-26-far" points="36,0 36,36 24,24 24,12" class="ts" />
<polygon id="tooth-26-inside" points="0,36 12,24 24,24 36,36" class="ts" />
<line id="tooth-26-x1" x1="3" y1="3" x2="33" y2="33" class="xm" visibility="hidden" />
<line id="tooth-26-x2" x1="33" y1="3" x2="3" y2="33" class="xm" visibility="hidden" />
</g>
<g id="tooth-27" transform="translate(616.0, 24)">
<polygon id="tooth-27-outside" points="0,0 36,0 24,12 12,12" class="ts" />
<polygon id="tooth-27-near" points="0,0 12,12 12,24 0,36" class="ts" />
<rect id="tooth-27-chew" x="12" y="12" width="12" height="12" class="ts" />
<polygon id="tooth-27-far" points="36,0 36,36 24,24 24,12" class="ts" />
<polygon id="tooth-27-inside" points="0,36 12,24 24,24 36,36" class="ts" />
<line id="tooth-27-x1" x1="3" y1="3" x2="33" y2="33" class="xm" visibility="hidden" />
<line id="tooth-27-x2" x1="33" y1="3" x2="3" y2="33" class="xm" visibility="hidden" />
</g>
<g id="tooth-28" transform="translate(656.0, 24)">
<polygon id="tooth-28-outside" points="0,0 36,0 24,12 12,12" class="ts" />
<polygon id="tooth-28-near" points="0,0 12,12 12,24 0,36" class="ts" />
<rect id="tooth-28-chew" x="12" y="12" width="12" height="12" class="ts" />
<polygon id="tooth-28-far" points="36,0 36,36 24,24 24,12" class="ts" />
<polygon id="tooth-28-inside" points="0,36 12,24 24,24 36,36" class="ts" />
<line id="tooth-28-x1" x1="3" y1="3" x2="33" y2="33" class="xm" visibility="hidden" />
<line id="tooth-28-x2" x1="33" y1="3" x2="3" y2="33" class="xm" visibility="hidden" />
</g>



<g id="tooth-48" transform="translate(48.0, 172)">
<polygon id="tooth-48-inside" points="0,0 36,0 24,12 12,12" class="ts" />
<polygon id="tooth-48-far" points="0,0 12,12 12,24 0,36" class="ts" />
<rect id="tooth-48-chew" x="12" y="12" width="12" height="12" class="ts" />
<polygon id="tooth-48-near" points="36,0 36,36 24,24 24,12" class="ts" />
<polygon id="tooth-48-outside" points="0,36 12,24 24,24 36,36" class="ts" />
<line id="tooth-48-x1" x1="3" y1="3" x2="33" y2="33" class="xm" visibility="hidden" />
<line id="tooth-48-x2" x1="33" y1="3" x2="3" y2="33" class="xm" visibility="hidden" />
</g>
<g id="tooth-47" transform="translate(88.0, 172)">
<polygon id="tooth-47-inside" points="0,0 36,0 24,12 12,12" class="ts" />
<polygon id="tooth-47-far" points="0,0 12,12 12,24 0,36" class="ts" />
<rect id="tooth-47-chew" x="12" y="12" width="12" height="12" class="ts" />
<polygon id="tooth-47-near" points="36,0 36,36 24,24 24,12" class="ts" />
<polygon id="tooth-47-outside" points="0,36 12,24 24,24 36,36" class="ts" />
<line id="tooth-47-x1" x1="3" y1="3" x2="33" y2="33" class="xm" visibility="hidden" />
<line id="tooth-47-x2" x1="33" y1="3" x2="3" y2="33" class="xm" visibility="hidden" />
</g>
<g id="tooth-46" transform="translate(128.0, 172)">
<polygon id="tooth-46-inside" points="0,0 36,0 24,12 12,12" class="ts" />
<polygon id="tooth-46-far" points="0,0 12,12 12,24 0,36" class="ts" />
<rect id="tooth-46-chew" x="12" y="12" width="12" height="12" class="ts" />
<polygon id="tooth-46-near" points="36,0 36,36 24,24 24,12" class="ts" />
<polygon id="tooth-46-outside" points="0,36 12,24 24,24 36,36" class="ts" />
<line id="tooth-46-x1" x1="3" y1="3" x2="33" y2="33" class="xm" visibility="hidden" />
<line id="tooth-46-x2" x1="33" y1="3" x2="3" y2="33" class="xm" visibility="hidden" />
</g>
<g id="tooth-45" transform="translate(168.0, 172)">
<polygon id="tooth-45-inside" points="0,0 36,0 24,12 12,12" class="ts" />
<polygon id="tooth-45-far" points="0,0 12,12 12,24 0,36" class="ts" />
<rect id="tooth-45-chew" x="12" y="12" width="12" height="12" class="ts" />
<polygon id="tooth-45-near" points="36,0 36,36 24,24 24,12" class="ts" />
<polygon id="tooth-45-outside" points="0,36 12,24 24,24 36,36" class="ts" />
<line id="tooth-45-x1" x1="3" y1="3" x2="33" y2="33" class="xm" visibility="hidden" />
<line id="tooth-45-x2" x1="33" y1="3" x2="3" y2="33" class="xm" visibility="hidden" />
</g>
<g id="tooth-44" transform="translate(208.0, 172)">
<polygon id="tooth-44-inside" points="0,0 36,0 24,12 12,12" class="ts" />
<polygon id="tooth-44-far" points="0,0 12,12 12,24 0,36" class="ts" />
<rect id="tooth-44-chew" x="12" y="12" width="12" height="12" class="ts" />
<polygon id="tooth-44-near" points="36,0 36,36 24,24 24,12" class="ts" />
<polygon id="tooth-44-outside" points="0,36 12,24 24,24 36,36" class="ts" />
<line id="tooth-44-x1" x1="3" y1="3" x2="33" y2="33" class="xm" visibility="hidden" />
<line id="tooth-44-x2" x1="33" y1="3" x2="3" y2="33" class="xm" visibility="hidden" />
</g>
<g id="tooth-43" transform="translate(248.0, 172)">
<polygon id="tooth-43-inside" points="0,0 36,0 24,12 12,12" class="ts" />
<polygon id="tooth-43-far" points="0,0 12,12 12,24 0,36" class="ts" />
<rect id="tooth-43-chew" x="12" y="12" width="12" height="12" class="ts" />
<polygon id="tooth-43-near" points="36,0 36,36 24,24 24,12" class="ts" />
<polygon id="tooth-43-outside" points="0,36 12,24 24,24 36,36" class="ts" />
<line id="tooth-43-x1" x1="3" y1="3" x2="33" y2="33" class="xm" visibility="hidden" />
<line id="tooth-43-x2" x1="33" y1="3" x2="3" y2="33" class="xm" visibility="hidden" />
</g>
<g id="tooth-42" transform="translate(288.0, 172)">
<polygon id="tooth-42-inside" points="0,0 36,0 24,12 12,12" class="ts" />
<polygon id="tooth-42-far" points="0,0 12,12 12,24 0,36" class="ts" />
<rect id="tooth-42-chew" x="12" y="12" width="12" height="12" class="ts" />
<polygon id="tooth-42-near" points="36,0 36,36 24,24 24,12" class="ts" />
<polygon id="tooth-42-outside" points="0,36 12,24 24,24 36,36" class="ts" />
<line id="tooth-42-x1" x1="3" y1="3" x2="33" y2="33" class="xm" visibility="hidden" />
<line id="tooth-42-x2" x1="33" y1="3" x2="3" y2="33" class="xm" visibility="hidden" />
</g>
<g id="tooth-41" transform="translate(328.0, 172)">
<polygon id="tooth-41-inside" points="0,0 36,0 24,12 12,12" class="ts" />
<polygon id="tooth-41-far" points="0,0 12,12 12,24 0,36" class="ts" />
<rect id="tooth-41-chew" x="12" y="12" width="12" height="12" class="ts" />
<polygon id="tooth-41-near" points="36,0 36,36 24,24 24,12" class="ts" />
<polygon id="tooth-41-outside" points="0,36 12,24 24,24 36,36" class="ts" />
<line id="tooth-41-x1" x1="3" y1="3" x2="33" y2="33" class="xm" visibility="hidden" />
<line id="tooth-41-x2" x1="33" y1="3" x2="3" y2="33" class="xm" visibility="hidden" />
</g>



<g id="tooth-31" transform="translate(376.0, 172)">
<polygon id="tooth-31-inside" points="0,0 36,0 24,12 12,12" class="ts" />
<polygon id="tooth-31-near" points="0,0 12,12 12,24 0,36" class="ts" />
<rect id="tooth-31-chew" x="12" y="12" width="12" height="12" class="ts" />
<polygon id="tooth-31-far" points="36,0 36,36 24,24 24,12" class="ts" />
<polygon id="tooth-31-outside" points="0,36 12,24 24,24 36,36" class="ts" />
<line id="tooth-31-x1" x1="3" y1="3" x2="33" y2="33" class="xm" visibility="hidden" />
<line id="tooth-31-x2" x1="33" y1="3" x2="3" y2="33" class="xm" visibility="hidden" />
</g>
<g id="tooth-32" transform="translate(416.0, 172)">
<polygon id="tooth-32-inside" points="0,0 36,0 24,12 12,12" class="ts" />
<polygon id="tooth-32-near" points="0,0 12,12 12,24 0,36" class="ts" />
<rect id="tooth-32-chew" x="12" y="12" width="12" height="12" class="ts" />
<polygon id="tooth-32-far" points="36,0 36,36 24,24 24,12" class="ts" />
<polygon id="tooth-32-outside" points="0,36 12,24 24,24 36,36" class="ts" />
<line id="tooth-32-x1" x1="3" y1="3" x2="33" y2="33" class="xm" visibility="hidden" />
<line id="tooth-32-x2" x1="33" y1="3" x2="3" y2="33" class="xm" visibility="hidden" />
</g>
<g id="tooth-33" transform="translate(456.0, 172)">
<polygon id="tooth-33-inside" points="0,0 36,0 24,12 12,12" class="ts" />
<polygon id="tooth-33-near" points="0,0 12,12 12,24 0,36" class="ts" />
<rect id="tooth-33-chew" x="12" y="12" width="12" height="12" class="ts" />
<polygon id="tooth-33-far" points="36,0 36,36 24,24 24,12" class="ts" />
<polygon id="tooth-33-outside" points="0,36 12,24 24,24 36,36" class="ts" />
<line id="tooth-33-x1" x1="3" y1="3" x2="33" y2="33" class="xm" visibility="hidden" />
<line id="tooth-33-x2" x1="33" y1="3" x2="3" y2="33" class="xm" visibility="hidden" />
</g>
<g id="tooth-34" transform="translate(496.0, 172)">
<polygon id="tooth-34-inside" points="0,0 36,0 24,12 12,12" class="ts" />
<polygon id="tooth-34-near" points="0,0 12,12 12,24 0,36" class="ts" />
<rect id="tooth-34-chew" x="12" y="12" width="12" height="12" class="ts" />
<polygon id="tooth-34-far" points="36,0 36,36 24,24 24,12" class="ts" />
<polygon id="tooth-34-outside" points="0,36 12,24 24,24 36,36" class="ts" />
<line id="tooth-34-x1" x1="3" y1="3" x2="33" y2="33" class="xm" visibility="hidden" />
<line id="tooth-34-x2" x1="33" y1="3" x2="3" y2="33" class="xm" visibility="hidden" />
</g>
<g id="tooth-35" transform="translate(536.0, 172)">
<polygon id="tooth-35-inside" points="0,0 36,0 24,12 12,12" class="ts" />
<polygon id="tooth-35-near" points="0,0 12,12 12,24 0,36" class="ts" />
<rect id="tooth-35-chew" x="12" y="12" width="12" height="12" class="ts" />
<polygon id="tooth-35-far" points="36,0 36,36 24,24 24,12" class="ts" />
<polygon id="tooth-35-outside" points="0,36 12,24 24,24 36,36" class="ts" />
<line id="tooth-35-x1" x1="3" y1="3" x2="33" y2="33" class="xm" visibility="hidden" />
<line id="tooth-35-x2" x1="33" y1="3" x2="3" y2="33" class="xm" visibility="hidden" />
</g>
<g id="tooth-36" transform="translate(576.0, 172)">
<polygon id="tooth-36-inside" points="0,0 36,0 24,12 12,12" class="ts" />
<polygon id="tooth-36-near" points="0,0 12,12 12,24 0,36" class="ts" />
<rect id="tooth-36-chew" x="12" y="12" width="12" height="12" class="ts" />
<polygon id="tooth-36-far" points="36,0 36,36 24,24 24,12" class="ts" />
<polygon id="tooth-36-outside" points="0,36 12,24 24,24 36,36" class="ts" />
<line id="tooth-36-x1" x1="3" y1="3" x2="33" y2="33" class="xm" visibility="hidden" />
<line id="tooth-36-x2" x1="33" y1="3" x2="3" y2="33" class="xm" visibility="hidden" />
</g>
<g id="tooth-37" transform="translate(616.0, 172)">
<polygon id="tooth-37-inside" points="0,0 36,0 24,12 12,12" class="ts" />
<polygon id="tooth-37-near" points="0,0 12,12 12,24 0,36" class="ts" />
<rect id="tooth-37-chew" x="12" y="12" width="12" height="12" class="ts" />
<polygon id="tooth-37-far" points="36,0 36,36 24,24 24,12" class="ts" />
<polygon id="tooth-37-outside" points="0,36 12,24 24,24 36,36" class="ts" />
<line id="tooth-37-x1" x1="3" y1="3" x2="33" y2="33" class="xm" visibility="hidden" />
<line id="tooth-37-x2" x1="33" y1="3" x2="3" y2="33" class="xm" visibility="hidden" />
</g>
<g id="tooth-38" transform="translate(656.0, 172)">
<polygon id="tooth-38-inside" points="0,0 36,0 24,12 12,12" class="ts" />
<polygon id="tooth-38-near" points="0,0 12,12 12,24 0,36" class="ts" />
<rect id="tooth-38-chew" x="12" y="12" width="12" height="12" class="ts" />
<polygon id="tooth-38-far" points="36,0 36,36 24,24 24,12" class="ts" />
<polygon id="tooth-38-outside" points="0,36 12,24 24,24 36,36" class="ts" />
<line id="tooth-38-x1" x1="3" y1="3" x2="33" y2="33" class="xm" visibility="hidden" />
<line id="tooth-38-x2" x1="33" y1="3" x2="3" y2="33" class="xm" visibility="hidden" />
</g>
<g id="tooth-51" transform="translate(331.6, 68) scale(0.8)">
<polygon id="tooth-51-outside" points="0,0 36,0 24,12 12,12" class="ts" />
<polygon id="tooth-51-far" points="0,0 12,12 12,24 0,36" class="ts" />
<rect id="tooth-51-chew" x="12" y="12" width="12" height="12" class="ts" />
<polygon id="tooth-51-near" points="36,0 36,36 24,24 24,12" class="ts" />
<polygon id="tooth-51-inside" points="0,36 12,24 24,24 36,36" class="ts" />
<line id="tooth-51-x1" x1="3" y1="3" x2="33" y2="33" class="xm" visibility="hidden" />
<line id="tooth-51-x2" x1="33" y1="3" x2="3" y2="33" class="xm" visibility="hidden" />
</g>



<text x="346" y="112" class="tl">51</text>
<g id="tooth-61" transform="translate(379.6, 68) scale(0.8)">
<polygon id="tooth-61-outside" points="0,0 36,0 24,12 12,12" class="ts" />
<polygon id="tooth-61-near" points="0,0 12,12 12,24 0,36" class="ts" />
<rect id="tooth-61-chew" x="12" y="12" width="12" height="12" class="ts" />
<polygon id="tooth-61-far" points="36,0 36,36 24,24 24,12" class="ts" />
<polygon id="tooth-61-inside" points="0,36 12,24 24,24 36,36" class="ts" />
<line id="tooth-61-x1" x1="3" y1="3" x2="33" y2="33" class="xm" visibility="hidden" />
<line id="tooth-61-x2" x1="33" y1="3" x2="3" y2="33" class="xm" visibility="hidden" />
</g>
<text x="394" y="112" class="tl">61</text>
<g id="tooth-81" transform="translate(331.6, 134) scale(0.8)">
<polygon id="tooth-81-inside" points="0,0 36,0 24,12 12,12" class="ts" />
<polygon id="tooth-81-far" points="0,0 12,12 12,24 0,36" class="ts" />
<rect id="tooth-81-chew" x="12" y="12" width="12" height="12" class="ts" />
<polygon id="tooth-81-near" points="36,0 36,36 24,24 24,12" class="ts" />
<polygon id="tooth-81-outside" points="0,36 12,24 24,24 36,36" class="ts" />
<line id="tooth-81-x1" x1="3" y1="3" x2="33" y2="33" class="xm" visibility="hidden" />
<line id="tooth-81-x2" x1="33" y1="3" x2="3" y2="33" class="xm" visibility="hidden" />
</g>



<text x="346" y="132" class="tl">81</text>
<g id="tooth-71" transform="translate(379.6, 134) scale(0.8)">
<polygon id="tooth-71-inside" points="0,0 36,0 24,12 12,12" class="ts" />
<polygon id="tooth-71-near" points="0,0 12,12 12,24 0,36" class="ts" />
<rect id="tooth-71-chew" x="12" y="12" width="12" height="12" class="ts" />
<polygon id="tooth-71-far" points="36,0 36,36 24,24 24,12" class="ts" />
<polygon id="tooth-71-outside" points="0,36 12,24 24,24 36,36" class="ts" />
<line id="tooth-71-x1" x1="3" y1="3" x2="33" y2="33" class="xm" visibility="hidden" />
<line id="tooth-71-x2" x1="33" y1="3" x2="3" y2="33" class="xm" visibility="hidden" />
</g>
<text x="394" y="132" class="tl">71</text>
<g id="tooth-52" transform="translate(291.6, 68) scale(0.8)">
<polygon id="tooth-52-outside" points="0,0 36,0 24,12 12,12" class="ts" />
<polygon id="tooth-52-far" points="0,0 12,12 12,24 0,36" class="ts" />
<rect id="tooth-52-chew" x="12" y="12" width="12" height="12" class="ts" />
<polygon id="tooth-52-near" points="36,0 36,36 24,24 24,12" class="ts" />
<polygon id="tooth-52-inside" points="0,36 12,24 24,24 36,36" class="ts" />
<line id="tooth-52-x1" x1="3" y1="3" x2="33" y2="33" class="xm" visibility="hidden" />
<line id="tooth-52-x2" x1="33" y1="3" x2="3" y2="33" class="xm" visibility="hidden" />
</g>
<text x="306" y="112" class="tl">52</text>
<g id="tooth-62" transform="translate(419.6, 68) scale(0.8)">
<polygon id="tooth-62-outside" points="0,0 36,0 24,12 12,12" class="ts" />
<polygon id="tooth-62-near" points="0,0 12,12 12,24 0,36" class="ts" />
<rect id="tooth-62-chew" x="12" y="12" width="12" height="12" class="ts" />
<polygon id="tooth-62-far" points="36,0 36,36 24,24 24,12" class="ts" />
<polygon id="tooth-62-inside" points="0,36 12,24 24,24 36,36" class="ts" />
<line id="tooth-62-x1" x1="3" y1="3" x2="33" y2="33" class="xm" visibility="hidden" />
<line id="tooth-62-x2" x1="33" y1="3" x2="3" y2="33" class="xm" visibility="hidden" />
</g>
<text x="434" y="112" class="tl">62</text>
<g id="tooth-82" transform="translate(291.6, 134) scale(0.8)">
<polygon id="tooth-82-inside" points="0,0 36,0 24,12 12,12" class="ts" />
<polygon id="tooth-82-far" points="0,0 12,12 12,24 0,36" class="ts" />
<rect id="tooth-82-chew" x="12" y="12" width="12" height="12" class="ts" />
<polygon id="tooth-82-near" points="36,0 36,36 24,24 24,12" class="ts" />
<polygon id="tooth-82-outside" points="0,36 12,24 24,24 36,36" class="ts" />
<line id="tooth-82-x1" x1="3" y1="3" x2="33" y2="33" class="xm" visibility="hidden" />
<line id="tooth-82-x2" x1="33" y1="3" x2="3" y2="33" class="xm" visibility="hidden" />
</g>
<text x="306" y="132" class="tl">82</text>
<g id="tooth-72" transform="translate(419.6, 134) scale(0.8)">
<polygon id="tooth-72-inside" points="0,0 36,0 24,12 12,12" class="ts" />
<polygon id="tooth-72-near" points="0,0 12,12 12,24 0,36" class="ts" />
<rect id="tooth-72-chew" x="12" y="12" width="12" height="12" class="ts" />
<polygon id="tooth-72-far" points="36,0 36,36 24,24 24,12" class="ts" />
<polygon id="tooth-72-outside" points="0,36 12,24 24,24 36,36" class="ts" />
<line id="tooth-72-x1" x1="3" y1="3" x2="33" y2="33" class="xm" visibility="hidden" />
<line id="tooth-72-x2" x1="33" y1="3" x2="3" y2="33" class="xm" visibility="hidden" />
</g>
<text x="434" y="132" class="tl">72</text>
<g id="tooth-53" transform="translate(251.6, 68) scale(0.8)">
<polygon id="tooth-53-outside" points="0,0 36,0 24,12 12,12" class="ts" />
<polygon id="tooth-53-far" points="0,0 12,12 12,24 0,36" class="ts" />
<rect id="tooth-53-chew" x="12" y="12" width="12" height="12" class="ts" />
<polygon id="tooth-53-near" points="36,0 36,36 24,24 24,12" class="ts" />
<polygon id="tooth-53-inside" points="0,36 12,24 24,24 36,36" class="ts" />
<line id="tooth-53-x1" x1="3" y1="3" x2="33" y2="33" class="xm" visibility="hidden" />
<line id="tooth-53-x2" x1="33" y1="3" x2="3" y2="33" class="xm" visibility="hidden" />
</g>
<text x="266" y="112" class="tl">53</text>
<g id="tooth-63" transform="translate(459.6, 68) scale(0.8)">
<polygon id="tooth-63-outside" points="0,0 36,0 24,12 12,12" class="ts" />
<polygon id="tooth-63-near" points="0,0 12,12 12,24 0,36" class="ts" />
<rect id="tooth-63-chew" x="12" y="12" width="12" height="12" class="ts" />
<polygon id="tooth-63-far" points="36,0 36,36 24,24 24,12" class="ts" />
<polygon id="tooth-63-inside" points="0,36 12,24 24,24 36,36" class="ts" />
<line id="tooth-63-x1" x1="3" y1="3" x2="33" y2="33" class="xm" visibility="hidden" />
<line id="tooth-63-x2" x1="33" y1="3" x2="3" y2="33" class="xm" visibility="hidden" />
</g>
<text x="474" y="112" class="tl">63</text>
<g id="tooth-83" transform="translate(251.6, 134) scale(0.8)">
<polygon id="tooth-83-inside" points="0,0 36,0 24,12 12,12" class="ts" />
<polygon id="tooth-83-far" points="0,0 12,12 12,24 0,36" class="ts" />
<rect id="tooth-83-chew" x="12" y="12" width="12" height="12" class="ts" />
<polygon id="tooth-83-near" points="36,0 36,36 24,24 24,12" class="ts" />
<polygon id="tooth-83-outside" points="0,36 12,24 24,24 36,36" class="ts" />
<line id="tooth-83-x1" x1="3" y1="3" x2="33" y2="33" class="xm" visibility="hidden" />
<line id="tooth-83-x2" x1="33" y1="3" x2="3" y2="33" class="xm" visibility="hidden" />
</g>
<text x="266" y="132" class="tl">83</text>
<g id="tooth-73" transform="translate(459.6, 134) scale(0.8)">
<polygon id="tooth-73-inside" points="0,0 36,0 24,12 12,12" class="ts" />
<polygon id="tooth-73-near" points="0,0 12,12 12,24 0,36" class="ts" />
<rect id="tooth-73-chew" x="12" y="12" width="12" height="12" class="ts" />
<polygon id="tooth-73-far" points="36,0 36,36 24,24 24,12" class="ts" />
<polygon id="tooth-73-outside" points="0,36 12,24 24,24 36,36" class="ts" />
<line id="tooth-73-x1" x1="3" y1="3" x2="33" y2="33" class="xm" visibility="hidden" />
<line id="tooth-73-x2" x1="33" y1="3" x2="3" y2="33" class="xm" visibility="hidden" />
</g>
<text x="474" y="132" class="tl">73</text>
<g id="tooth-54" transform="translate(211.6, 68) scale(0.8)">
<polygon id="tooth-54-outside" points="0,0 36,0 24,12 12,12" class="ts" />
<polygon id="tooth-54-far" points="0,0 12,12 12,24 0,36" class="ts" />
<rect id="tooth-54-chew" x="12" y="12" width="12" height="12" class="ts" />
<polygon id="tooth-54-near" points="36,0 36,36 24,24 24,12" class="ts" />
<polygon id="tooth-54-inside" points="0,36 12,24 24,24 36,36" class="ts" />
<line id="tooth-54-x1" x1="3" y1="3" x2="33" y2="33" class="xm" visibility="hidden" />
<line id="tooth-54-x2" x1="33" y1="3" x2="3" y2="33" class="xm" visibility="hidden" />
</g>
<text x="226" y="112" class="tl">54</text>
<g id="tooth-64" transform="translate(499.6, 68) scale(0.8)">
<polygon id="tooth-64-outside" points="0,0 36,0 24,12 12,12" class="ts" />
<polygon id="tooth-64-near" points="0,0 12,12 12,24 0,36" class="ts" />
<rect id="tooth-64-chew" x="12" y="12" width="12" height="12" class="ts" />
<polygon id="tooth-64-far" points="36,0 36,36 24,24 24,12" class="ts" />
<polygon id="tooth-64-inside" points="0,36 12,24 24,24 36,36" class="ts" />
<line id="tooth-64-x1" x1="3" y1="3" x2="33" y2="33" class="xm" visibility="hidden" />
<line id="tooth-64-x2" x1="33" y1="3" x2="3" y2="33" class="xm" visibility="hidden" />
</g>
<text x="514" y="112" class="tl">64</text>
<g id="tooth-84" transform="translate(211.6, 134) scale(0.8)">
<polygon id="tooth-84-inside" points="0,0 36,0 24,12 12,12" class="ts" />
<polygon id="tooth-84-far" points="0,0 12,12 12,24 0,36" class="ts" />
<rect id="tooth-84-chew" x="12" y="12" width="12" height="12" class="ts" />
<polygon id="tooth-84-near" points="36,0 36,36 24,24 24,12" class="ts" />
<polygon id="tooth-84-outside" points="0,36 12,24 24,24 36,36" class="ts" />
<line id="tooth-84-x1" x1="3" y1="3" x2="33" y2="33" class="xm" visibility="hidden" />
<line id="tooth-84-x2" x1="33" y1="3" x2="3" y2="33" class="xm" visibility="hidden" />
</g>
<text x="226" y="132" class="tl">84</text>
<g id="tooth-74" transform="translate(499.6, 134) scale(0.8)">
<polygon id="tooth-74-inside" points="0,0 36,0 24,12 12,12" class="ts" />
<polygon id="tooth-74-near" points="0,0 12,12 12,24 0,36" class="ts" />
<rect id="tooth-74-chew" x="12" y="12" width="12" height="12" class="ts" />
<polygon id="tooth-74-far" points="36,0 36,36 24,24 24,12" class="ts" />
<polygon id="tooth-74-outside" points="0,36 12,24 24,24 36,36" class="ts" />
<line id="tooth-74-x1" x1="3" y1="3" x2="33" y2="33" class="xm" visibility="hidden" />
<line id="tooth-74-x2" x1="33" y1="3" x2="3" y2="33" class="xm" visibility="hidden" />
</g>
<text x="514" y="132" class="tl">74</text>
<g id="tooth-55" transform="translate(171.6, 68) scale(0.8)">
<polygon id="tooth-55-outside" points="0,0 36,0 24,12 12,12" class="ts" />
<polygon id="tooth-55-far" points="0,0 12,12 12,24 0,36" class="ts" />
<rect id="tooth-55-chew" x="12" y="12" width="12" height="12" class="ts" />
<polygon id="tooth-55-near" points="36,0 36,36 24,24 24,12" class="ts" />
<polygon id="tooth-55-inside" points="0,36 12,24 24,24 36,36" class="ts" />
<line id="tooth-55-x1" x1="3" y1="3" x2="33" y2="33" class="xm" visibility="hidden" />
<line id="tooth-55-x2" x1="33" y1="3" x2="3" y2="33" class="xm" visibility="hidden" />
</g>
<text x="186" y="112" class="tl">55</text>
<g id="tooth-65" transform="translate(539.6, 68) scale(0.8)">
<polygon id="tooth-65-outside" points="0,0 36,0 24,12 12,12" class="ts" />
<polygon id="tooth-65-near" points="0,0 12,12 12,24 0,36" class="ts" />
<rect id="tooth-65-chew" x="12" y="12" width="12" height="12" class="ts" />
<polygon id="tooth-65-far" points="36,0 36,36 24,24 24,12" class="ts" />
<polygon id="tooth-65-inside" points="0,36 12,24 24,24 36,36" class="ts" />
<line id="tooth-65-x1" x1="3" y1="3" x2="33" y2="33" class="xm" visibility="hidden" />
<line id="tooth-65-x2" x1="33" y1="3" x2="3" y2="33" class="xm" visibility="hidden" />
</g>
<text x="554" y="112" class="tl">65</text>
<g id="tooth-85" transform="translate(171.6, 134) scale(0.8)">
<polygon id="tooth-85-inside" points="0,0 36,0 24,12 12,12" class="ts" />
<polygon id="tooth-85-far" points="0,0 12,12 12,24 0,36" class="ts" />
<rect id="tooth-85-chew" x="12" y="12" width="12" height="12" class="ts" />
<polygon id="tooth-85-near" points="36,0 36,36 24,24 24,12" class="ts" />
<polygon id="tooth-85-outside" points="0,36 12,24 24,24 36,36" class="ts" />
<line id="tooth-85-x1" x1="3" y1="3" x2="33" y2="33" class="xm" visibility="hidden" />
<line id="tooth-85-x2" x1="33" y1="3" x2="3" y2="33" class="xm" visibility="hidden" />
</g>
<text x="186" y="132" class="tl">85</text>
<g id="tooth-75" transform="translate(539.6, 134) scale(0.8)">
<polygon id="tooth-75-inside" points="0,0 36,0 24,12 12,12" class="ts" />
<polygon id="tooth-75-near" points="0,0 12,12 12,24 0,36" class="ts" />
<rect id="tooth-75-chew" x="12" y="12" width="12" height="12" class="ts" />
<polygon id="tooth-75-far" points="36,0 36,36 24,24 24,12" class="ts" />
<polygon id="tooth-75-outside" points="0,36 12,24 24,24 36,36" class="ts" />
<line id="tooth-75-x1" x1="3" y1="3" x2="33" y2="33" class="xm" visibility="hidden" />
<line id="tooth-75-x2" x1="33" y1="3" x2="3" y2="33" class="xm" visibility="hidden" />
</g>
<text x="554" y="132" class="tl">75</text>
</svg>