<svg width="3627" height="6136" viewBox="0 0 3627 6136" fill="none" xmlns="http://www.w3.org/2000/svg">

    <style>
      .ts{fill:white;stroke:#555;stroke-width:0.8}
      .tl{font-family:Arial,Helvetica,sans-serif;font-size:10px;text-anchor:middle;fill:#333}
      .sl{font-family:Arial,Helvetica,sans-serif;font-size:12px;font-weight:bold;fill:#666;text-anchor:middle}
      .xm{stroke:#C62828;stroke-width:2;stroke-linecap:round}
      .anno-rect { fill: white; stroke: #999; stroke-width: 5; }
      .anno-text { font-family: Arial, sans-serif; font-size: 60px; font-weight: normal; fill: #000; text-anchor: middle; dominant-baseline: middle; }
      .anno-label { font-family: Arial, sans-serif; font-size: 90px; font-weight: bold; fill: #555; text-anchor: middle; dominant-baseline: middle; }
    </style>
    































































<g id="tooth-18-silhouette">
</g>

        <g id="tooth-18-anno-group">
           <text x="0.0" y="-470" class="anno-label">18</text>
           <rect x="-200.0" y="-400" width="400" height="100" rx="10" class="anno-rect" />
           <text x="0.0" y="-350.0" class="anno-text" id="tooth-18-annotation">-</text>
        </g>
        
<g id="tooth-16-silhouette">
</g>

        <g id="tooth-16-anno-group">
           <text x="0.0" y="-470" class="anno-label">16</text>
           <rect x="-200.0" y="-400" width="400" height="100" rx="10" class="anno-rect" />
           <text x="0.0" y="-350.0" class="anno-text" id="tooth-16-annotation">-</text>
        </g>
        
<g id="tooth-17-silhouette">
</g>

        <g id="tooth-17-anno-group">
           <text x="0.0" y="-470" class="anno-label">17</text>
           <rect x="-200.0" y="-400" width="400" height="100" rx="10" class="anno-rect" />
           <text x="0.0" y="-350.0" class="anno-text" id="tooth-17-annotation">-</text>
        </g>
        
<g id="tooth-15-silhouette">
</g>

        <g id="tooth-15-anno-group">
           <text x="0.0" y="-470" class="anno-label">15</text>
           <rect x="-200.0" y="-400" width="400" height="100" rx="10" class="anno-rect" />
           <text x="0.0" y="-350.0" class="anno-text" id="tooth-15-annotation">-</text>
        </g>
        
<g transform="translate(0, 800)">
<g id="tooth-14-silhouette">
  <path d="M1326.88 4686.32c-20.66 12.28-42.14 26.69-44.81-7.88-3.74-36.03 11.83-52.64 18.31-78.4" stroke="#000" stroke-width="10"/>
  <path d="M651.853 2391.18c-22.45 6.61-50.962 12.2-52.171 22.4" stroke="#000" stroke-width="10" stroke-linecap="round" stroke-linejoin="round"/>
  <path d="M2712.76 4251.22c-19.85-17.97-19.49-49.49-19.18-80.98 12.2-52.8 34.31-78.04 69.66-66.56" stroke="#000" stroke-width="10"/>
  <path d="M2674.74 4217.7c1.56-27.08 9.81-39.22 20.57-45.74m29.09-83.7-2.52 24.15" stroke="#000" stroke-width="10"/>
  <path d="M2477.47 4603.57c-16.96 53.73-27.58 115.35-79.84 125.21-40.64 18.53-82.19 48.38-116.41-12.63" stroke="#000" stroke-width="10"/>
  <path d="M2188.89 4685.36c22.08 32.12 83.29 64.15 14.05 96.51m-65.68-62.76-15.32 74.18c-9.97 35.71-20.07 21.01-30.18.08" stroke="#000" stroke-width="10"/>
  <path d="M2267.5 4747.22c-1.57 26.18.87 54.94-31.73 61.29-27.72 9.56-62.5 19.13-73.2 28.64-45.89 25.34-50.17 12.07-68.94 12.25" stroke="#000" stroke-width="10"/>
  <path d="M2040.28 4885.75c-17.11 2.9-33.32 8.45-52.58 2.72l-31.03 2.67c-21.83 3.23-40.61.3-60.34-.71-29.92-1.56-60.74-2.7-52.65-22.27" stroke="#000" stroke-width="10"/>
  <path d="M1586.71 4885.27c17.11 2.9 33.31 8.46 52.58 2.73l31.02 2.67c21.84 3.23 40.62.29 60.35-.71 29.92-1.56 60.74-2.7 52.64-22.27" stroke="#000" stroke-width="10"/>
  <path d="M1438.09 4684.88c-22.07 32.13-83.28 64.15-14.04 96.52m65.68-62.76 15.32 74.18c9.97 35.71 20.06 21 30.17.08" stroke="#000" stroke-width="10"/>
  <path d="M1359.48 4746.75c1.58 26.18-.86 54.93 31.74 61.29 27.72 9.55 62.5 19.13 73.2 28.64 45.89 25.34 50.17 12.07 68.93 12.25" stroke="#000" stroke-width="10"/>
  <path d="M1149.51 4603.09c16.97 53.74 27.59 115.36 79.85 125.21 40.64 18.54 82.19 48.38 116.41-12.62m-160.05-113.35c4.83-21.5 20.66-37.9 55.29-45.55" stroke="#000" stroke-width="10"/>
  <path d="M1203.7 4650.65c11.75 11.21 23.56 2.09 35.43-32.67 6.17-26.42 17.12-33.55 27.7-42.17" stroke="#000" stroke-width="10"/>
  <path d="M914.227 4250.75c19.847-17.97 19.485-49.5 19.178-80.98-12.194-52.8-34.313-78.04-69.654-66.56" stroke="#000" stroke-width="10"/>
  <path d="M952.246 4217.23c-1.558-27.08-9.807-39.22-20.57-45.74m-29.091-83.7 2.523 24.15" stroke="#000" stroke-width="10"/>
  <path d="M795.046 3674.58c-10.256 25.89-16.554 50.28-41.594 81.78 10.187 33.72 24.757 45.8 39.506 57 3.677 9.52 9.629 4.87 6.752 55.19 3.609 48.29 35.077 64.91 53.196 96.7" stroke="#000" stroke-width="10"/>
</g>
</g>

        <g id="tooth-14-anno-group">
           <text x="1276.355" y="5816.32" class="anno-label">14</text>
           <rect x="1076.355" y="5886.32" width="400" height="100" rx="10" class="anno-rect" />
           <text x="1276.355" y="5936.32" class="anno-text" id="tooth-14-annotation">-</text>
        </g>
        
<g id="tooth-13-silhouette">
  <path d="m625.436 2260.13 14.117-12.64c-3.909-36.14 3.261-41.56 14.181-36.58m151.275-755.95c9.076-9.26 25.766-23.05 53.636-43.52" stroke="#000" stroke-width="10" stroke-linecap="round"/>
  <path d="M624.383 2303.44c57.484 5.25 109.322 18.93 144.235 50.37 49.842 25.76 81.641 52.76 79.011 82.14 15.953 44.76 3.537 77.28-5.808 111.13l-26.554 55.56c-16.796 32.34-51.506 53.87-105.8 63.58-63.917 10.59-127.839 23.3-191.633-13.06-72.63-27.1-76.087-65.53-83.063-103.39-21.436-38.83-35.788-85.6-27.286-157.94 7.532-33.06 17.106-75.1 63.979-94.31 46.874-19.21 88.903-9.25 152.919 5.92Z" stroke="#000" stroke-width="10" stroke-linejoin="round"/>
  <path d="M453.336 2362.49c-53.366 75.74-16.801 109.11 5.243 149.31-5.999 68.17-4.205 120.57 41.955 114.2 68.055 48.49 117.687 22.46 171.793 14.53 7.76-12.31 8.253-28.28 29.666-33.72 0 0 47.657-102.22 53.831-118.17s11.154-45.51-20.924-77.52c0 0-49.63-51.86-81.516-66.41-15.168-6.92-33.029-4.83-49.274-8.58-33.305-7.68-98.517-28.43-98.517-28.43-31.247-6.9-50.681 9.28-52.257 54.79Z" stroke="#000" stroke-width="10"/>
  <path d="M672.516 2568.7c2.036-1.35-33.877-24.23-59.067-33.95-12.88-4.98-20.583-20.46-23.855-33.87-6.734-27.61 20.003-62.64 11.489-84.48s-26.413-22.82-42.176-29.69c-10.552-4.59-16.817-.76-33.784-7.13" stroke="#000" stroke-width="10" stroke-linecap="round"/>
  <path d="M527.6 2509.17c9.078-4.53 20.762-9.99 35.226-5.54s22.015 5.83 26.779-6.98m60.552 4.39c-21.142-.87-44.258 11.82-61.938-12.84m13.962-114.32c5.095 12.61 7.812 24.73-1.157 34.48" stroke="#000" stroke-width="10" stroke-linecap="round"/>
  <path d="M470.92 2101.98c-20.159-27.63-17.523-67.84-3.927-114.1 51.88-118.83 145.083-144.44 290.28-52.76 45.544 18.38 81.65 53.74 105.401 89.01 23.365 34.7 45.057 51.4 33.508 112.76-26.665 103.37-72.724 184.45-203.259 168.49-51.865-6.31-97.667 7.27-163.265-44.09-25.393-42.03-74.326-39.24-58.738-159.31Z" stroke="#000" stroke-width="10" stroke-linecap="round"/>
  <path d="M530.476 1948.61c54.628-118.08 144.011-24.2 230.845 54.13 17.77 21.35 40.331 34.77 47.696 73.36 26.765 68.05-39.607 106.81-70.824 153.34-31.218 46.53-63.449 69.73-119.855 51.8-131.904-48.62-136.944-112.38-116.432-179.18-41.656-98.88-13.44-104.08-2.471-132.4 10.344-5.71 20.68-8.41 31.041-21.05Z" stroke="#000" stroke-width="10"/>
  <path d="M740.191 2004.09c-13.265 7.21-22.831 7.07-32.413 6.96-25.589-3.8-36.343 9.8-39.521 32.29-.34 14.14 3.436 29.66-18.406 36.57-18.82 17.16-9.431 25.01-7.134 35.19-.511 15.98-1.009 26.71-1.501 35.21-.431 57.37 15.283 56.14 25.153 76.12 5.947 6.48 13.298 12.5 8.392 22.56l11.242 9.89" stroke="#000" stroke-width="10" stroke-linecap="round"/>
  <path d="M653.044 1936.26c5.375 11.75 10.601 23.5 19.627 35.26 10.022 7.5 14.256 23.63 16.79 42.3m-136.479-53.88c18.958.81 37.95 1.58 42.209 17.01 24.017 17.77 48.106 35.59 74.504 55.12m-152.26 55.94 54.911 7.19c20.655 8.91 42.292 14.9 70.419 1.59m-.063 23.95 29.585-2.74c13.122 9.05 26.253 14.43 39.385 19.82" stroke="#000" stroke-width="10" stroke-linecap="round"/>
  <path d="M606.234 1524.86c99.024-85.94 172.028-36.3 245.036 13.32 19.716 24.47 39.002 48.93 66.005 73.41 82.689 79.47 67.136 133.4 19.25 178.93-29.845 33.11-58.428 65.59-73.478 91.36-17.25 17.76-33.109 31.38-46.579 37.9-63.743 28.62-88.08-11.3-123.862-31.31-128.557-67.76-174.595-162.14-141.515-282.06 3.644-46.23 25.388-69.07 55.143-81.55Z" stroke="#000" stroke-width="10"/>
  <path d="M621.454 1629.13c-20.799-96.42 29.392-85.75 56.625-109.71 47.313-11.38 86.946-39.08 166.153 17.33 58.991 82.09 41.354 128.18 48.809 186.05 3.642 55.25-12.948 88.84-35.481 102.72-5.607 29.81-4.283 58.33-53.742 84.37-42.09 37.53-71.672 5.25-102.768-18.58-46.826-12.59-54.347-43.35-53.296-86.05-95.291-41.45-42.007-119.71-26.3-176.13Z" stroke="#000" stroke-width="10"/>
  <path d="M806.196 1539.47c-9.688 11.38-22.62 12.94-25.47 45.01 4.38 32.87-13.676 65.69-31.244 98.51-18.166 17.67-12.269 65.59-17.163 99.95 17.796 16.96 35.636 17.15 53.481 15.63l33.725 29.67" stroke="#000" stroke-width="10" stroke-linecap="round"/>
  <path d="M639.731 1641.85c12.074 13.09 21.09 28.2 54.859 26.91 19.255-2.47 38.507-3.71 57.724 8.6" stroke="#000" stroke-width="10" stroke-linecap="round"/>
  <path d="M852.377 1653.68c-36.901 6.34-91.443 3.81-101.471 23.68m-90.458 120.89c37.577 17 53.495-.85 73.272-12.49m-42.423 64.68 17.038-52.07" stroke="#000" stroke-width="10" stroke-linecap="round"/>
  <path d="M804.194 1228.2c-97.757 13.94-144.122 64.37-114.526 168.71 31.172 38.3 59.511 79.41 112.425 96.07 18.748-.39 35.212 1.5 46.456 8.57 16.233 4.44 34.831 4.41 54.926 1.56 37.843-20.1 88.727-3.38 110.045-70.14 17.59-53.41 14.59-100.45-27.817-135.28-83.815-70.1-129.883-64.2-181.509-69.49Z" stroke="#000" stroke-width="10" stroke-linecap="round"/>
  <path d="M828.12 1235.3c-12.391 14.38-23.911 27.9-19.286 43.38-5.395 17.92-5.38 23.19-6.258 29.8-7.661 14.23-8.234 17.89-8.506 21.1.256 24.69 4.406 30.17 8.355 36.64 11.158 32.68.941 39.57-5.767 50.69-6.797 11.02-16.294 5.57-19.814 36.57m123.928 5.96c-47.478-16.44-50.494-41.66-42.072-69.13-5.003-44.2 12.994-69.9 25.614-99.93" stroke="#000" stroke-width="10" stroke-linecap="round"/>
  <path d="M927.924 1310.21c-19.725 2.39-39.445 3.01-59.188 12.52m-32.288-40.93c21.525 18.48 28.193 33.2 35.086 47.98m8.536 162.25c37.319-25.38 87.159-4.13 103.66-80.76 2.918-24.44 19.64-53.28-18.678-109.53" stroke="#000" stroke-width="10" stroke-linecap="round"/>
  <path d="M883.2 954.97c-81.594 28.415-86.958 67.62-87.35 107.53-4.151 175.54 144.862 172.57 173.722 159.08 45.408 5.62 76.938.4 101.748-10.08 46.34-3.56 68.65-31.25 76.06-73.94 6.78-22.92 9.09-48.08-2.38-80.18-8.38-17.93-2.68-35.12-54.16-55.31-54.29-5.988-71.47-19.757-93.878-34.733-32.228-34.973-72.317-27.343-113.762-12.367Z" stroke="#000" stroke-width="10" stroke-linecap="round"/>
  <path d="M960.786 955.173c.367 8.622 6.631 17.259-14.723 25.824-36.978 29.983-34.475 52.183-26.053 73.203 17.121 32.53 11.015 47.94-6.179 55.16-53.329 51.73-41.182 62.34-55.407 89.51" stroke="#000" stroke-width="10" stroke-linecap="round"/>
  <path d="M894.701 1172.24c49.839-7.06 89.963-26.77 101.083-84.22 5.876-33.26-13.377-52.24-39.479-67.34" stroke="#000" stroke-width="10" stroke-linecap="round"/>
  <path d="M1075.23 1037.37c-65.14 6.53-86.087 23.25-77.704 43.76-.176 54.13 16.994 41.28 29.154 58.7m-59.575 36.05c9.243-12.04 6.148-24.12 1.819-36.2" stroke="#000" stroke-width="10" stroke-linecap="round"/>
  <path d="M1020.96 1021.71c-22.74 20.91-25.036 31.66-25.111 41.31m100.121-46.29c15.97 35.63.07 64.81 3.21 90.53 2.98 35.86-7.66 66.38-45.91 86.09-23.52 13.24-52.07 15.95-77.637 17.9" stroke="#000" stroke-width="10" stroke-linecap="round"/>
  <path d="M1029.73 963.113c-54.044-18.031-79.353-51.019-85.097-94.189-6.678-42.21.696-83.38 26.184-123.208 22.289-62.026 44.403-58.591 66.543-62.757 19.75 2.491 37.7 1.358 55.18-.717 52.83-2.342 72.51 21.618 85.24 37.292 44.59 59.699 39.66 94.483 50.51 137.201 5.57 47.169 3.11 87.5-20.98 109.429-73.31 54.826-85.77 27.962-116.45 25.557-57.13-24.062-42.43-19.737-61.13-28.608Z" stroke="#000" stroke-width="10" stroke-linecap="round"/>
  <path d="M996.271 901.818c2.568-58.387 7.479-113.781 34.849-140.427 27.09-28.376 61.94-48.947 109.63-56.609m22.28 51.782c32.33 125.751 46.34 155.429-38.13 77.487m-37.19 43.868c71.17 86.132 23.97 73.394-52.68 36.069" stroke="#000" stroke-width="10" stroke-linecap="round"/>
  <path d="M1197.9 608.379c133.39-87.561 106.06-62.003 163.15-81.47 19.9-7.111 36.41-8.175 44.81 5.29l30.95 31.116c21.04 26.435 19.64 32.048 22.31 41.438 9.91 81.743-1.54 80.717-3.75 115.507-15.25 29.613-33.67 56.041-64.84 69.659-19.23 13.567-45.87 12.235-74.16 7.564l-46.52-11.329c-18.24 2.743-33.96-9.422-49.95-19.958-33.75-23.691-42.47-57.316-54.07-89.797-2.34-21.009 3.64-39.62 17.39-55.989z" stroke="#000" stroke-width="10" stroke-linecap="round"/>
  <path d="M1235.44 756.754c-17.9-27.841-46.56-50.338-11.79-104.342 31.89-24.885 56.85-32.566 84.61-47.192 23.89-12.029 47.6-23.695 64.71-22.245 71.25-6.84 41.91 10.182 61.17 15.678" stroke="#000" stroke-width="10" stroke-linecap="round"/>
  <path d="M1384.91 631.283c6.1 31.904 11.78 64.635 29.12 74.214m-69.98 58.438c2.52-27.17-37.09-38.665-69.69-52.769" stroke="#000" stroke-width="10" stroke-linecap="round"/>
  <path d="M1458.39 554.751c.65 6.007 35.73 67.865 44.57 95.806 11.96 30.166 31.01 57.437 81.71 71.766 41.41-5.084 83.4-6.171 118.25-55.725l85.69-129.948 15.62-41.339c11.29-29.849-13.15-57.295-36.02-69.06l-62.03-16.542c-36.22-2.321-60.27-12.939-131.05 8.278l-66.42 14.481c-24.16 10.655-56.43 6.485-57.06 60.196 1.27 20.53-6.77 39.484 6.74 62.087Z" stroke="#000" stroke-width="10" stroke-linecap="round"/>
  <path d="m1521.97 634.228-15.18-126.765c8.23.022-9.27-25.59 21.65-37.012 112.89-43.966 178.14-11.738 196.55-2.072 18.42 9.667 34.4 36.102 30.87 63.875-3.53 27.772-11.26 34.441-16.5 48.232" stroke="#000" stroke-width="10" stroke-linecap="round"/>
  <path d="M2168.6 555.223c-.65 6.007-35.73 67.865-44.58 95.806-11.96 30.166-31 57.437-81.71 71.766-41.4-5.084-83.39-6.171-118.25-55.725l-85.68-129.948-15.63-41.339c-11.28-29.849 13.15-57.295 36.03-69.06l62.02-16.542c36.23-2.321 60.28-12.939 131.06 8.278l66.42 14.481c24.16 10.655 56.43 6.484 57.05 60.196-1.27 20.53 6.77 39.484-6.73 62.087Z" stroke="#000" stroke-width="10" stroke-linecap="round"/>
  <path d="m2105.01 634.7 15.19-126.765c-8.24.022 9.27-25.591-21.65-37.012-112.9-43.966-178.14-11.738-196.56-2.072-18.41 9.667-34.4 36.102-30.87 63.875 3.54 27.772 11.27 34.441 16.51 48.232" stroke="#000" stroke-width="10" stroke-linecap="round"/>
  <path d="M2429.08 608.851c-133.38-87.561-106.05-62.003-163.14-81.469-19.9-7.112-36.42-8.176-44.81 5.289l-30.96 31.116c-21.03 26.436-19.63 32.048-22.3 41.438-9.91 81.743 1.54 80.717 3.75 115.508 15.25 29.612 33.67 56.04 64.84 69.658 19.23 13.567 45.86 12.235 74.15 7.564l46.53-11.329c18.24 2.743 33.95-9.422 49.94-19.958 33.75-23.691 42.48-57.316 54.08-89.797 2.33-21.009-3.64-39.62-17.39-55.989z" stroke="#000" stroke-width="10" stroke-linecap="round"/>
  <path d="M2391.54 757.226c17.91-27.841 46.56-50.338 11.8-104.342-31.89-24.885-56.85-32.567-84.61-47.192-23.89-12.029-47.6-23.695-64.71-22.245-71.25-6.84-41.92 10.182-61.17 15.678" stroke="#000" stroke-width="10" stroke-linecap="round"/>
  <path d="M2242.07 631.755c-6.09 31.904-11.78 64.635-29.11 74.214m69.98 58.438c-2.52-27.17 37.09-38.665 69.69-52.769" stroke="#000" stroke-width="10" stroke-linecap="round"/>
  <path d="M2597.26 963.585c54.04-18.031 79.35-51.018 85.09-94.189 6.68-42.21-.69-83.38-26.18-123.208-22.29-62.025-44.41-58.591-66.54-62.757-19.75 2.491-37.7 1.358-55.18-.717-52.83-2.341-72.51 21.619-85.25 37.292-44.58 59.699-39.66 94.483-50.5 137.202-5.58 47.168-3.12 87.499 20.98 109.428 73.3 54.824 85.76 27.962 116.44 25.557 57.13-24.062 42.44-19.737 61.14-28.608Z" stroke="#000" stroke-width="10" stroke-linecap="round"/>
  <path d="M2630.72 902.29c-2.57-58.388-7.48-113.781-34.86-140.427-27.08-28.376-61.93-48.947-109.63-56.609m-22.27 51.782c-32.33 125.751-46.34 155.429 38.13 77.487m37.18 43.868c-71.17 86.132-23.96 73.394 52.68 36.069" stroke="#000" stroke-width="10" stroke-linecap="round"/>
  <path d="M2743.79 955.442c81.59 28.415 86.95 67.618 87.35 107.528 4.15 175.55-144.87 172.57-173.73 159.08-45.4 5.62-76.93.4-101.75-10.08-46.33-3.55-68.65-31.25-76.05-73.94-6.78-22.91-9.1-48.08 2.37-80.18 8.39-17.93 2.69-35.11 54.17-55.31 54.29-5.986 71.47-19.755 93.88-34.731 32.22-34.973 72.31-27.343 113.76-12.367Z" stroke="#000" stroke-width="10" stroke-linecap="round"/>
  <path d="M2666.2 955.646c-.37 8.621-6.63 17.258 14.72 25.823 36.98 29.981 34.48 52.181 26.06 73.211-17.12 32.53-11.02 47.93 6.18 55.15 53.32 51.73 41.18 62.34 55.4 89.51" stroke="#000" stroke-width="10" stroke-linecap="round"/>
  <path d="M2732.29 1172.71c-49.84-7.06-89.97-26.77-101.09-84.21-5.88-33.27 13.38-52.25 39.48-67.35" stroke="#000" stroke-width="10" stroke-linecap="round"/>
  <path d="M2551.76 1037.84c65.13 6.53 86.08 23.25 77.7 43.76.18 54.13-16.99 41.28-29.16 58.7m59.58 36.05c-9.24-12.04-6.15-24.12-1.82-36.2" stroke="#000" stroke-width="10" stroke-linecap="round"/>
  <path d="M2606.03 1022.18c22.74 20.91 25.03 31.67 25.11 41.32m-100.12-46.29c-15.97 35.62-.08 64.8-3.22 90.52-2.97 35.86 7.67 66.39 45.92 86.09 23.52 13.25 52.06 15.95 77.63 17.9" stroke="#000" stroke-width="10" stroke-linecap="round"/>
  <path d="M2822.79 1228.67c97.76 13.95 144.12 64.37 114.53 168.71-31.17 38.3-59.51 79.41-112.43 96.07-18.75-.38-35.21 1.5-46.45 8.58-16.24 4.44-34.83 4.41-54.93 1.55-37.84-20.1-88.73-3.38-110.04-70.14-17.6-53.41-14.59-100.45 27.81-135.28 83.82-70.09 129.89-64.2 181.51-69.49Z" stroke="#000" stroke-width="10" stroke-linecap="round"/>
  <path d="M2798.87 1235.77c12.39 14.38 23.91 27.9 19.28 43.39 5.4 17.92 5.38 23.18 6.26 29.79 7.66 14.23 8.23 17.89 8.51 21.1-.26 24.69-4.41 30.17-8.36 36.64-11.16 32.68-.94 39.57 5.77 50.69 6.8 11.02 16.29 5.57 19.81 36.57m-123.93 5.96c47.48-16.44 50.5-41.66 42.08-69.12 5-44.21-13-69.91-25.62-99.94" stroke="#000" stroke-width="10" stroke-linecap="round"/>
  <path d="M2699.06 1310.68c19.73 2.4 39.45 3.02 59.19 12.53m32.29-40.93c-21.53 18.47-28.19 33.2-35.09 47.98m66.53 125.17c-9.08-9.25-25.77-23.05-53.64-43.52m-21.42 80.59c-37.32-25.38-87.16-4.12-103.66-80.76-2.92-24.43-19.65-53.27 18.68-109.53" stroke="#000" stroke-width="10" stroke-linecap="round"/>
  <path d="M3020.75 1525.34c-99.02-85.95-172.03-36.31-245.03 13.31-19.72 24.47-39.01 48.93-66.01 73.42-82.69 79.46-67.13 133.39-19.25 178.92 29.85 33.11 58.43 65.6 73.48 91.36 17.25 17.76 33.11 31.38 46.58 37.9 63.74 28.63 88.08-11.29 123.86-31.31 128.56-67.75 174.6-162.14 141.52-282.06-3.65-46.23-25.39-69.06-55.15-81.54Z" stroke="#000" stroke-width="10"/>
  <path d="M3005.53 1629.6c20.8-96.42-29.39-85.75-56.62-109.71-47.32-11.38-86.95-39.08-166.15 17.34-59 82.08-41.36 128.17-48.81 186.04-3.65 55.26 12.94 88.84 35.48 102.72 5.6 29.81 4.28 58.34 53.74 84.37 42.09 37.53 71.67 5.25 102.77-18.58 46.82-12.58 54.34-43.35 53.29-86.05 95.29-41.44 42.01-119.7 26.3-176.13Z" stroke="#000" stroke-width="10"/>
  <path d="M2820.79 1539.94c9.69 11.38 22.62 12.94 25.47 45.01-4.38 32.87 13.68 65.69 31.24 98.51 18.17 17.68 12.27 65.6 17.17 99.95-17.8 16.96-35.64 17.16-53.48 15.64l-33.73 29.66" stroke="#000" stroke-width="10" stroke-linecap="round"/>
  <path d="M2987.26 1642.33c-12.08 13.08-21.09 28.2-54.86 26.9-19.26-2.46-38.51-3.71-57.73 8.6" stroke="#000" stroke-width="10" stroke-linecap="round"/>
  <path d="M2774.61 1654.15c36.9 6.34 91.44 3.81 101.47 23.68m90.46 120.89c-37.58 17-53.5-.85-73.27-12.49m42.42 64.68-17.04-52.07" stroke="#000" stroke-width="10" stroke-linecap="round"/>
  <path d="M3156.07 2102.45c20.16-27.63 17.52-67.84 3.92-114.1-51.88-118.83-145.08-144.44-290.28-52.76-45.54 18.39-81.65 53.74-105.4 89.01-23.36 34.7-45.05 51.4-33.51 112.76 26.67 103.37 72.73 184.46 203.26 168.49 51.87-6.31 97.67 7.27 163.27-44.09 25.39-42.03 74.32-39.23 58.74-159.31Z" stroke="#000" stroke-width="10" stroke-linecap="round"/>
  <path d="M3096.51 1949.08c-54.63-118.08-144.01-24.2-230.84 54.13-17.77 21.35-40.34 34.77-47.7 73.36-26.77 68.05 39.61 106.81 70.82 153.34 31.22 46.53 63.45 69.74 119.86 51.8 131.9-48.62 136.94-112.38 116.43-179.18 41.66-98.87 13.44-104.08 2.47-132.4-10.34-5.71-20.68-8.41-31.04-21.05Z" stroke="#000" stroke-width="10"/>
  <path d="M2886.8 2004.56c13.26 7.21 22.83 7.07 32.41 6.96 25.59-3.8 36.34 9.8 39.52 32.29.34 14.14-3.44 29.66 18.41 36.57 18.82 17.17 9.43 25.01 7.13 35.19.51 15.99 1.01 26.71 1.5 35.21.43 57.37-15.28 56.14-25.15 76.12-5.95 6.48-13.3 12.5-8.39 22.56l-11.25 9.89" stroke="#000" stroke-width="10" stroke-linecap="round"/>
  <path d="M2973.94 1936.73c-5.37 11.75-10.6 23.5-19.62 35.26-10.03 7.5-14.26 23.63-16.79 42.3m136.47-53.88c-18.95.81-37.95 1.58-42.2 17.01-24.02 17.77-48.11 35.59-74.51 55.13m152.26 55.94-54.91 7.18c-20.65 8.91-42.29 14.91-70.42 1.59m17.33 163.34-14.12-12.64c3.91-36.14-3.26-41.56-14.18-36.58m11.03-90.17-29.58-2.74c-13.12 9.05-26.25 14.44-39.39 19.82" stroke="#000" stroke-width="10" stroke-linecap="round"/>
  <path d="M3002.6 2303.91c-57.48 5.25-109.32 18.93-144.23 50.38-49.84 25.76-81.64 52.76-79.01 82.13-15.96 44.76-3.54 77.29 5.81 111.13l26.55 55.57c16.8 32.34 51.51 53.86 105.8 63.57 63.92 10.59 127.84 23.3 191.63-13.06 72.63-27.09 76.09-65.53 83.07-103.39 21.43-38.83 35.78-85.6 27.28-157.93-7.53-33.07-17.1-75.11-63.98-94.32-46.87-19.21-88.9-9.24-152.92 5.92Z" stroke="#000" stroke-width="10" stroke-linejoin="round"/>
  <path d="M3173.65 2362.97c53.37 75.73 16.8 109.1-5.24 149.31 6 68.16 4.2 120.56-41.96 114.19-68.05 48.49-117.68 22.47-171.79 14.54-7.76-12.32-8.25-28.29-29.67-33.73 0 0-47.65-102.22-53.83-118.17-6.17-15.95-11.15-45.51 20.93-77.52 0 0 49.63-51.86 81.51-66.41 15.17-6.92 33.03-4.83 49.28-8.58 33.3-7.68 98.51-28.43 98.51-28.43 31.25-6.9 50.68 9.28 52.26 54.8Z" stroke="#000" stroke-width="10"/>
  <path d="M2954.47 2569.18c-2.04-1.35 33.88-24.23 59.07-33.96 12.88-4.98 20.58-20.45 23.85-33.87 6.74-27.61-20-62.63-11.49-84.47 8.52-21.85 26.42-22.83 42.18-29.69 10.55-4.6 16.82-.77 33.78-7.13" stroke="#000" stroke-width="10" stroke-linecap="round"/>
  <path d="M2975.13 2391.66c22.45 6.6 50.97 12.19 52.17 22.39" stroke="#000" stroke-width="10" stroke-linecap="round" stroke-linejoin="round"/>
  <path d="M3099.39 2509.64c-9.08-4.53-20.77-9.99-35.23-5.54s-22.01 5.84-26.78-6.97m-60.55 4.38c21.14-.87 44.26 11.82 61.94-12.84m-13.96-114.32c-5.1 12.61-7.82 24.73 1.15 34.48" stroke="#000" stroke-width="10" stroke-linecap="round"/>
  <path d="M3152.79 3078.52c5.35-37.45 29.29-41.03 10.03-123.31-10.04-58.7-38.81-107.19-103.81-135.93-39.34-5.6-75.2-33.65-120.69.31-13.26 11.59-23.13 17.77-31.84 22.5-18.08 18.83-53.22 19.94-70.45 91.57.02 27.29 6.68 37.86-5.78 96.56-3.95 22.63-15.43 36.81-2.38 78.46 14.07 19.26 12.8 39.66 56.19 56.75 11.9 11 106.51 21.37 137.12 20.33 30.61-1.05 29.08 9.41 75.77-34.68 18.51-23.38 35.33-32.86 55.84-72.56Z" stroke="#000" stroke-width="10"/>
  <path d="M2935.81 2848.91c34.99-52.16 74.05-28.97 113.82 7.46 22.6 27.15 29.59 55.76 26.94 85.28-.97 17.72-8.68 29.7-25.77 33.69 11.28 6.3 15.79 18.05 15.6 33.57l-15.28 89.7c-14.57 36.96-26.14 36.77-38.66 48.38-6.69 3.38-13.46 6.68-22.4 7.82-12.37-4.18-24.73-6.73-37.18-42.15 10.53-3.37-33.19-20.19-1-53.44 10.37-11.34-24.69-48.1-4.52-78.44 10.33-33.39 20.16-62.23 28.26-75.08-21.8-3.54-15.29-23.36-22.51-35.28m48.35 28.32-25.84 6.96" stroke="#000" stroke-width="10"/>
  <path d="M2899.93 2974.01c13.7 6.16 25.55 16.66 45.71 7.64m38.2 102.48c-16.1-2.48-28.16-10.66-32.83-29.22m62.72-80.34c-21.39-4.13-44.94-16.8-62.08-4.15m-5.58 173.29c-13.62-.42-26.5.73-42.26-4.2-22.52-25.15-30.59-25.19-44.92-36.09-2.69-.81-31.08-30.37-10.54-74.97 11.34-22.82 14.09-30.7 9.36-47.44 11.13-39.01 5.1-47.8 7.57-71.57" stroke="#000" stroke-width="10"/>
  <path d="M3032.4 3190.9c32.14 14.94 64.95 24.43 94.97 56.65 24.87 19.58 43.37 54.84 47.75 124.87 2.08 49.25 14.02 97.24-18.57 150.92-27.99 23.59-10.85 31.61-86.89 71.78-39.17 16.41-67.29 52.59-127.5 31.36-29.13-8.25-38.97-4.99-88.86-25.63-21.14-4.81-38.65-16.93-48.39-44.7-10.5-17.96-19.26-42.9-25.21-79.24 2.04-31.4 6.77-44.31 11.05-60.38 6.83-42.21 4.27-59.8-.19-72.41-.46-21.26 3.77-42.54 17.07-63.84 6.99-23.02 11.58-44.78 52.4-69.96 37.17-27.94 61.3-48.96 172.37-19.42Z" stroke="#000" stroke-width="10"/>
  <path d="M2961.91 3597.12c-14.53-6.93-14.69-19.03-58.66-15.36-10.64-1.38-21.27-1.58-31.94-16.3l-23.31-14.59-19.88-17.19c-15.5-16.86-19.1-35.07-13.93-54.28 2.72-21.3 7.08-47 3.31-50.87-2.04-13.21 2.03-34.63 6.75-56.91-2.16-28.76-22.56-24.75 4.04-105.18 1.73-17.15 10.79-25.92 27.51-25.94 13.61-2.68 17.27-8.95 34.43-22.5 12.19-7.22 18.5-14.42 45.63-21.67 20.7 2.62 41.37-4.26 62.1 12.76l36.3 32.67c29.26 24.25 32.39 37.7 34.61 50.77 8.13 19.52 4.96 39.07 1.88 58.62-.69 16.66-6.42 30.45-23.18 37.99 8.05 9.58 17.08 14.19 20.81 45.63 8.59 54.61-4.62 68.61-13.55 90.56-17.47 25.37-34.95 44.48-52.42 65.65" stroke="#000" stroke-width="10"/>
  <path d="M2913.6 3253.28c15.72 10.72 28.04 27.41 34.62 54.22-2.83 20.97-7.68 37.9-12.79 54.35-4.3 22.67-16.15 21.4-10.14 76.75 10.77 10.45 13.43 18.22 10.41 24.11-19.48 41.49-12.69 78.13 18.39 110.29" stroke="#000" stroke-width="10"/>
  <path d="M2884.13 3523.19c9.57-20.79 20.47-40.92 48.14-52.72 3.82-11.76 16.8-16.44 41.35-12.17m39.46-73.38c-39.14-3.26-73.53-3.76-85.32 8.84m-98.24 14.91c30.62-8.5 51.77-25.25 99.09-19.22m-87.98-18.74 42.3 22.31m126.45-102.92c-28.08 5.53-47.72 11.04-62.02 16.54m24.82-67.31c-11.14 21.87-25.09 43.75-23.1 65.58" stroke="#000" stroke-width="10"/>
  <path d="M2826.63 3621.61c-20.13-6.26-42.26 5.89-64.6 20l-30.09 34.56c-21.19 20.17-30.08 40.31-28.29 60.42 1.93 35.05-7.4 70.14-30.76 105.25-14.94 43.1-24.69 84.74 1.17 116.38 15.79 28.73 34.99 56.09 73.48 75.67 40.24 16.6 75.72 39.19 124.25 45.37 31.73 2.45 57.49 12.9 108.6-10.63l69.7-46.74c11.74-8.59 22.92-13.4 41.21-66.49 5.98-49.32 28.95-96.56 1.33-150l-44.23-101.61c-20.92-26.11-34.8-54.81-79.5-72.2-26.06-8.41-43.55-21.52-93.15-17z" stroke="#000" stroke-width="10"/>
  <path d="M2756.07 3670.07c-10.64 22.16-27.19 44.33-27.42 66.46-5.37 44.65-19.83 75.75-34.2 106.98-8.4 21.77-21.43 37.92-10.13 83.65 8.03 28.68 15.5 57.63 57.09 70.54l71.63 31.71c20.41 9.6 48.11 8.2 77.6 4.11 28.71-10.32 57.44-9.88 86.07-50.23 6.17-12.05 9.78-29.16 6.74-59.5m13.74-22.45c13.81.16 24.54-4.51 22.34-29.37-3.21-47.21 3.28-95.42-21.06-140.46.04-26.22 1.67-53.51-18.28-66.33-26.41-19.27-39.04-52.37-94.94-42-27.59 6.13-45.93 6.43-55.17 1.01" stroke="#000" stroke-width="10"/>
  <path d="M2831.94 3675.05c10.26 25.89 16.55 50.29 41.59 81.79-10.18 33.71-24.75 45.79-39.5 57-3.68 9.51-9.63 4.86-6.75 55.19-3.61 48.28-35.08 64.9-53.2 96.69" stroke="#000" stroke-width="10"/>
  <path d="M2937.68 3890.29c-36.26-17.66-72.52-41.06-108.71-32.47m-90.69-67.87c26.61 41.05 58.95 38.3 89.77 47.18m-36.47-103.36c21.4 24.12 42.62 48.29 41.58 79.21m146.3-97.8c-24.6 29.08-58.28 45.52-105.92 42.52" stroke="#000" stroke-width="10"/>
  <path d="M2673.48 4065.98c-84.63 42.07-83.4 64.68-85.95 96.78 6.4 38.44 4.69 52.74 4.49 71.54-1.14 39.52 23.47 49.9 38.98 70.59 49.74 49.76 76.23 33.68 111.32 41.95 32.27-4.97 51.93-9.91 70.65-14.84 52.62-12.78 48.02-32.55 67.98-49.32 25.57-34.32 27.82-78.18 14.31-128.49-11.07-29.92-33.56-52.3-57.09-73.98l-57.83-29.16c-44.4-18.36-95.27 6.84-106.86 14.93Z" stroke="#000" stroke-width="10"/>
  <path d="M2752.78 4063.19c18.43 3.7 40.76 6.45 48.4 47.29-.15 17.76 5.55 31.59 12.19 44.79 8.02 42.58-12.93 70.77-31.63 100.08-14.52 24.51-32.49 26.96-49.92 32.89-19 10.05-33.26 3.31-43.15-18.85-6.05-12.65-7.3-31.33-21.64-33.56-6.48-11.43-7.33-20.99-6.98-30.16 8.16-15.3 1.55-36.47-1.01-56.03 33.46-1.68 41.69-28.47 45.54-59.6 15.57-5.9 30.51-7.96 48.2-26.85Z" stroke="#000" stroke-width="10"/>
  <path d="M2688.06 4365.08c33.56 46.28 41.61 79.48 38.21 106.8-10.04 47.54-15.24 98.56-65.21 117.41-79.76 26.57-96.92 4.52-129.33-5.69-37.08-18.03-66.23-40.61-87.24-67.88-16.16-11.16-14.96-22.37-15.61-33.58 2.5-20.82-1.98-34.87-3.58-51.71-2.44-32.68 11.66-55.48 19.61-81.95 23.52-19.15 40.74-45.44 79.19-47.62l66.37-1.9c40.89-2.14 68.78 33.32 97.59 66.12Z" stroke="#000" stroke-width="10"/>
  <path d="M2670.84 4374.61c-11.86 16.68-26.58 36.31-34.36 46.64-4.18 7.38-.65 12.58-1.66 24.14 4.99 30.02-4.32 28.08-12.84 34.52-8.69 6.74-17.61 13.03-24.08 24.2-7.41 22.42-17.94 17.43-27.53 20.76l-39.64 7c-31.44 9.47-36.39-5.03-53.46-5.89m9.35-50.02c-2.06 11.44 5.36 24.22-11.12 33.64" stroke="#000" stroke-width="10"/>
  <path d="m2572 4488.66-73.5-87.74c-15.45-18.66-27.27-23.18-28.42 13.87m113.78-4.61c-7.2-22.1-27.45-44.18-62.24-66.21 13.47 4.7 26.91 9.5 44.83.74 21.24-10.41 31.37 1.57 43.99 8.51" stroke="#000" stroke-width="10"/>
  <path d="M2406.58 4526.16c-57.68-8.1-108.17-8.37-118.01 35.66l-29.08 86.28c-20.91 65.77 1.04 52.46 4.5 73.27l43.24 50.75c16.52 16.72 34.32 32.55 73.36 33.42 57.23-2.11 115.15-3.02 127.36-85.67l4.92-96.57c-11.87-46.14-24.86-91.63-106.29-97.14Z" stroke="#000" stroke-width="10"/>
  <path d="M2300.1 4686.79c20.66 12.28 42.14 26.7 44.81-7.88 3.75-36.03-11.83-52.64-18.31-78.4m114.66 2.29c-4.83-21.5-20.65-37.89-55.29-45.55m37.32 93.87c-11.75 11.21-23.56 2.09-35.43-32.66-6.18-26.43-17.12-33.55-27.7-42.17" stroke="#000" stroke-width="10"/>
  <path d="M2099.18 4664.04c16.39-45.75 56.39-46.28 83.56-24.36l38.92 49.04 45.81 43.84c6.66 20.53 24.57 19.26 3.69 93.1-12.56 39.94-37.82 57.78-68.8 65.7-39.72 11.4-73.73 4.07-104.34-14.39-20.88-21.5-53.91-31.65-45.04-80.91 8.85-22.16 9.27-27.34 28.26-69.9 5.98-20.62 11.99-30.78 17.94-62.12Z" stroke="#000" stroke-width="10"/>
  <path d="M1999.36 4733.27c13 28.54 22.2 60.12 45.9 80.05 10.64 10.65 19.79 24.29 7.97 80.15-12.27 23.27-33.27 36.89-66.28 37.24-26.62-5-49.54-12.14-91.4-8.38-20.16-4.87-38.53 1.66-63.01-30.87-8.09-15.36-20.69-25.15-.2-75.86l62.71-83.78c17.01-12.68 18.87-32.19 58.53-34.64 31.01.94 36.82 19.62 45.78 36.09Z" stroke="#000" stroke-width="10"/>
  <path d="M1627.62 4732.79c-12.99 28.55-22.19 60.13-45.9 80.06-10.63 10.65-19.79 24.29-7.96 80.15 12.26 23.27 33.27 36.89 66.28 37.24 26.62-5 49.54-12.14 91.4-8.38 20.15-4.87 38.53 1.66 63.01-30.87 8.09-15.36 20.68-25.15.2-75.86l-62.71-83.79c-17.02-12.67-18.88-32.18-58.53-34.63-31.01.94-36.83 19.62-45.79 36.08Z" stroke="#000" stroke-width="10"/>
  <path d="M1527.8 4663.57c-16.38-45.75-56.38-46.28-83.55-24.36l-38.93 49.04-45.8 43.84c-6.66 20.52-24.58 19.26-3.69 93.1 12.56 39.94 37.82 57.78 68.79 65.69 39.72 11.41 73.73 4.08 104.35-14.38 20.87-21.5 53.91-31.65 45.04-80.92-8.85-22.15-9.27-27.33-28.27-69.9-5.98-20.61-11.98-30.77-17.94-62.11Z" stroke="#000" stroke-width="10"/>
  <path d="M1220.41 4525.69c57.68-8.1 108.17-8.37 118.01 35.66l29.08 86.28c20.91 65.76-1.04 52.45-4.5 73.26l-43.24 50.75c-16.52 16.73-34.32 32.55-73.36 33.43-57.24-2.11-115.15-3.02-127.36-85.68l-4.92-96.56c11.87-46.14 24.86-91.63 106.29-97.14Z" stroke="#000" stroke-width="10"/>
  <path d="M938.929 4364.61c-33.559 46.28-41.613 79.48-38.21 106.8 10.039 47.54 15.234 98.56 65.21 117.41 79.751 26.57 96.921 4.52 129.321-5.7 37.08-18.02 66.24-40.61 87.25-67.87 16.16-11.17 14.95-22.38 15.61-33.58-2.5-20.82 1.98-34.87 3.58-51.72 2.44-32.67-11.66-55.47-19.61-81.94-23.52-19.15-40.75-45.45-79.19-47.63l-66.37-1.89c-40.889-2.15-68.779 33.32-97.591 66.12Z" stroke="#000" stroke-width="10"/>
  <path d="M956.146 4374.14c11.858 16.68 26.576 36.31 34.361 46.64 4.182 7.38.654 12.58 1.66 24.14-4.986 30.02 4.323 28.08 12.843 34.52 8.69 6.74 17.61 13.03 24.07 24.2 7.42 22.42 17.95 17.43 27.53 20.76l39.64 7c31.45 9.47 36.39-5.03 53.47-5.89m-9.36-50.03c2.07 11.45-5.36 24.23 11.12 33.65" stroke="#000" stroke-width="10"/>
  <path d="m1054.99 4488.19 73.5-87.74c15.45-18.66 27.26-23.18 28.41 13.87m-113.78-4.61c7.2-22.11 27.46-44.18 62.24-66.22-13.47 4.7-26.9 9.51-44.83.75-21.24-10.41-31.36 1.56-43.98 8.5" stroke="#000" stroke-width="10"/>
  <path d="M953.505 4065.51c84.635 42.06 83.395 64.68 85.955 96.78-6.41 38.44-4.7 52.74-4.5 71.54 1.15 39.51-23.47 49.9-38.976 70.59-49.733 49.76-76.228 33.67-111.317 41.95-32.269-4.97-51.931-9.91-70.652-14.85-52.622-12.77-48.023-32.54-67.974-49.31-25.579-34.33-27.828-78.19-14.319-128.49 11.078-29.92 33.561-52.3 57.09-73.99l57.836-29.16c44.4-18.35 95.266 6.85 106.857 14.94Z" stroke="#000" stroke-width="10"/>
  <path d="M874.202 4062.72c-18.43 3.7-40.751 6.45-48.4 47.28.157 17.76-5.544 31.6-12.186 44.8-8.021 42.58 12.934 70.77 31.635 100.08 14.52 24.51 32.489 26.96 49.914 32.89 19.003 10.05 33.26 3.31 43.153-18.85 6.051-12.65 7.302-31.33 21.639-33.57 6.477-11.42 7.334-20.98 6.976-30.15-8.153-15.31-1.544-36.47 1.009-56.03-33.459-1.68-41.683-28.47-45.534-59.6-15.568-5.9-30.507-7.96-48.206-26.85Z" stroke="#000" stroke-width="10"/>
  <path d="M800.358 3621.14c20.132-6.26 42.261 5.89 64.603 20l30.082 34.56c21.195 20.17 30.081 40.31 28.29 60.42-1.926 35.05 7.405 70.13 30.759 105.25 14.94 43.1 24.693 84.73-1.166 116.38-15.793 28.73-34.987 56.09-73.475 75.67-40.243 16.6-75.722 39.18-124.257 45.36-31.724 2.46-57.487 12.9-108.593-10.63l-69.706-46.73c-11.735-8.59-22.914-13.4-41.205-66.49-5.984-49.32-28.956-96.57-1.331-150l44.231-101.61c20.914-26.12 34.797-54.81 79.5-72.21 26.055-8.4 43.546-21.51 93.148-16.99z" stroke="#000" stroke-width="10"/>
  <path d="M870.921 3669.6c10.632 22.16 27.187 44.33 27.412 66.45 5.372 44.66 19.83 75.76 34.203 106.99 8.402 21.77 21.433 37.92 10.126 83.65-8.025 28.68-15.496 57.62-57.081 70.54l-71.635 31.71c-20.408 9.6-48.111 8.2-77.598 4.1-28.708-10.31-57.445-9.87-86.075-50.22-6.162-12.06-9.78-29.17-6.741-59.5m-13.734-22.45c-13.813.16-24.538-4.51-22.338-29.37 3.202-47.21-3.281-95.42 21.058-140.46-.043-26.23-1.672-53.51 18.277-66.33 26.407-19.27 39.046-52.37 94.938-42 27.594 6.12 45.937 6.43 55.17 1.01" stroke="#000" stroke-width="10"/>
  <path d="M689.31 3889.82c36.253-17.66 72.521-41.07 108.706-32.48m90.695-67.86c-26.617 41.05-58.958 38.3-89.779 47.18m36.477-103.36c-21.4 24.12-42.623 48.29-41.586 79.2m-146.297-97.79c24.598 29.08 58.277 45.52 105.924 42.52" stroke="#000" stroke-width="10"/>
  <path d="M594.588 3190.43c-32.141 14.94-64.948 24.43-94.976 56.65-24.864 19.58-43.364 54.83-47.741 124.87-2.087 49.25-14.022 97.24 18.571 150.91 27.983 23.59 10.84 31.62 86.881 71.78 39.173 16.41 67.293 52.6 127.505 31.37 29.127-8.25 38.964-4.99 88.86-25.63 21.14-4.81 38.652-16.94 48.393-44.7 10.492-17.96 19.259-42.9 25.208-79.24-2.043-31.4-6.775-44.32-11.049-60.38-6.835-42.21-4.272-59.8.189-72.41.462-21.26-3.775-42.54-17.074-63.84-6.985-23.02-11.583-44.78-52.403-69.96-37.169-27.95-61.293-48.96-172.364-19.42Z" stroke="#000" stroke-width="10"/>
  <path d="M665.077 3596.65c14.527-6.93 14.688-19.04 58.661-15.36 10.636-1.38 21.269-1.58 31.939-16.3l23.315-14.59 19.872-17.19c15.506-16.86 19.102-35.07 13.935-54.28-2.724-21.31-7.079-47-3.315-50.87 2.047-13.21-2.03-34.63-6.747-56.91 2.164-28.76 22.562-24.75-4.035-105.19-1.733-17.14-10.797-25.91-27.519-25.93-13.609-2.68-17.266-8.95-34.424-22.5-12.193-7.22-18.499-14.42-45.633-21.68-20.696 2.63-41.368-4.25-62.102 12.77l-36.293 32.67c-29.261 24.25-32.395 37.7-34.616 50.77-8.131 19.52-4.955 39.07-1.877 58.61.688 16.66 6.424 30.46 23.176 38-8.046 9.58-17.075 14.19-20.809 45.63-8.589 54.61 4.617 68.61 13.556 90.55 17.462 25.38 34.941 44.49 52.415 65.66" stroke="#000" stroke-width="10"/>
  <path d="M713.391 3252.81c-15.719 10.72-28.044 27.41-34.625 54.22 2.828 20.97 7.684 37.9 12.789 54.34 4.298 22.68 16.15 21.4 10.144 76.75-10.77 10.45-13.433 18.22-10.408 24.12 19.472 41.49 12.684 78.13-18.392 110.29" stroke="#000" stroke-width="10"/>
  <path d="M742.857 3522.71c-9.571-20.78-20.473-40.91-48.138-52.71-3.818-11.77-16.805-16.44-41.348-12.17m-39.463-73.38c39.142-3.26 73.528-3.76 85.322 8.84m98.237 14.91c-30.622-8.5-51.773-25.25-99.088-19.22m87.981-18.74-42.3 22.31m-126.455-102.92c28.084 5.53 47.717 11.04 62.025 16.54m-24.823-67.31c11.144 21.87 25.094 43.75 23.104 65.58" stroke="#000" stroke-width="10"/>
  <path d="M474.192 3078.04c-5.348-37.44-29.281-41.02-10.022-123.3 10.033-58.7 38.808-107.19 103.805-135.93 39.344-5.6 75.203-33.66 120.689.31 13.258 11.59 23.135 17.77 31.838 22.5 18.081 18.82 53.225 19.94 70.45 91.56-.015 27.3-6.672 37.87 5.782 96.57 3.947 22.62 15.434 36.81 2.381 78.46-14.068 19.26-12.797 39.66-56.184 56.75-11.907 10.99-106.514 21.37-137.122 20.33-30.609-1.05-29.086 9.4-75.772-34.69-18.515-23.37-35.331-32.85-55.845-72.56Z" stroke="#000" stroke-width="10"/>
  <path d="M691.174 2848.44c-34.992-52.16-74.046-28.97-113.813 7.46-22.605 27.15-29.591 55.76-26.948 85.27.973 17.73 8.683 29.71 25.774 33.69-11.279 6.31-15.787 18.06-15.605 33.58l15.282 89.7c14.571 36.96 26.142 36.76 38.667 48.38 6.684 3.38 13.452 6.68 22.393 7.81 12.368-4.17 24.731-6.72 37.18-42.14-10.527-3.38 33.194-20.19 1.002-53.45-10.369-11.34 24.689-48.09 4.516-78.43-10.324-33.39-20.156-62.24-28.252-75.08 21.795-3.54 15.29-23.36 22.506-35.28m-48.35 28.32 25.844 6.96" stroke="#000" stroke-width="10"/>
  <path d="M727.053 2973.53c-13.696 6.17-25.55 16.67-45.71 7.64m-38.199 102.49c16.106-2.48 28.159-10.66 32.835-29.22m-62.721-80.34c21.387-4.13 44.935-16.8 62.08-4.15m5.581 173.29c13.621-.42 26.494.73 42.253-4.2 22.521-25.16 30.599-25.19 44.922-36.09 2.694-.81 31.078-30.37 10.541-74.97-11.341-22.82-14.092-30.71-9.359-47.44-11.134-39.02-5.097-47.8-7.571-71.57" stroke="#000" stroke-width="10"/>
</g>

        <g id="tooth-13-anno-group">
           <text x="1510.6950000000002" y="1790.13" class="anno-label">13</text>
           <rect x="1310.6950000000002" y="1860.13" width="400" height="100" rx="10" class="anno-rect" />
           <text x="1510.6950000000002" y="1910.13" class="anno-text" id="tooth-13-annotation">-</text>
        </g>
        
<g id="tooth-12-silhouette">
</g>

        <g id="tooth-12-anno-group">
           <text x="0.0" y="-470" class="anno-label">12</text>
           <rect x="-200.0" y="-400" width="400" height="100" rx="10" class="anno-rect" />
           <text x="0.0" y="-350.0" class="anno-text" id="tooth-12-annotation">-</text>
        </g>
        
<g id="tooth-11-silhouette">
</g>

        <g id="tooth-11-anno-group">
           <text x="0.0" y="-470" class="anno-label">11</text>
           <rect x="-200.0" y="-400" width="400" height="100" rx="10" class="anno-rect" />
           <text x="0.0" y="-350.0" class="anno-text" id="tooth-11-annotation">-</text>
        </g>
        
<g id="tooth-21-silhouette">
</g>

        <g id="tooth-21-anno-group">
           <text x="0.0" y="-470" class="anno-label">21</text>
           <rect x="-200.0" y="-400" width="400" height="100" rx="10" class="anno-rect" />
           <text x="0.0" y="-350.0" class="anno-text" id="tooth-21-annotation">-</text>
        </g>
        
<g id="tooth-22-silhouette">
</g>

        <g id="tooth-22-anno-group">
           <text x="0.0" y="-470" class="anno-label">22</text>
           <rect x="-200.0" y="-400" width="400" height="100" rx="10" class="anno-rect" />
           <text x="0.0" y="-350.0" class="anno-text" id="tooth-22-annotation">-</text>
        </g>
        
<g id="tooth-23-silhouette">
</g>

        <g id="tooth-23-anno-group">
           <text x="0.0" y="-470" class="anno-label">23</text>
           <rect x="-200.0" y="-400" width="400" height="100" rx="10" class="anno-rect" />
           <text x="0.0" y="-350.0" class="anno-text" id="tooth-23-annotation">-</text>
        </g>
        
<g id="tooth-24-silhouette">
</g>

        <g id="tooth-24-anno-group">
           <text x="0.0" y="-470" class="anno-label">24</text>
           <rect x="-200.0" y="-400" width="400" height="100" rx="10" class="anno-rect" />
           <text x="0.0" y="-350.0" class="anno-text" id="tooth-24-annotation">-</text>
        </g>
        
<g id="tooth-25-silhouette">
</g>

        <g id="tooth-25-anno-group">
           <text x="0.0" y="-470" class="anno-label">25</text>
           <rect x="-200.0" y="-400" width="400" height="100" rx="10" class="anno-rect" />
           <text x="0.0" y="-350.0" class="anno-text" id="tooth-25-annotation">-</text>
        </g>
        
<g id="tooth-26-silhouette">
</g>

        <g id="tooth-26-anno-group">
           <text x="0.0" y="-470" class="anno-label">26</text>
           <rect x="-200.0" y="-400" width="400" height="100" rx="10" class="anno-rect" />
           <text x="0.0" y="-350.0" class="anno-text" id="tooth-26-annotation">-</text>
        </g>
        
<g id="tooth-27-silhouette">
</g>

        <g id="tooth-27-anno-group">
           <text x="0.0" y="-470" class="anno-label">27</text>
           <rect x="-200.0" y="-400" width="400" height="100" rx="10" class="anno-rect" />
           <text x="0.0" y="-350.0" class="anno-text" id="tooth-27-annotation">-</text>
        </g>
        
<g id="tooth-28-silhouette">
</g>

        <g id="tooth-28-anno-group">
           <text x="0.0" y="-470" class="anno-label">28</text>
           <rect x="-200.0" y="-400" width="400" height="100" rx="10" class="anno-rect" />
           <text x="0.0" y="-350.0" class="anno-text" id="tooth-28-annotation">-</text>
        </g>
        
<g id="tooth-38-silhouette">
</g>

        <g id="tooth-38-anno-group">
           <text x="0.0" y="-470" class="anno-label">38</text>
           <rect x="-200.0" y="-400" width="400" height="100" rx="10" class="anno-rect" />
           <text x="0.0" y="-350.0" class="anno-text" id="tooth-38-annotation">-</text>
        </g>
        
<g id="tooth-37-silhouette">
</g>

        <g id="tooth-37-anno-group">
           <text x="0.0" y="-470" class="anno-label">37</text>
           <rect x="-200.0" y="-400" width="400" height="100" rx="10" class="anno-rect" />
           <text x="0.0" y="-350.0" class="anno-text" id="tooth-37-annotation">-</text>
        </g>
        
<g id="tooth-36-silhouette">
</g>

        <g id="tooth-36-anno-group">
           <text x="0.0" y="-470" class="anno-label">36</text>
           <rect x="-200.0" y="-400" width="400" height="100" rx="10" class="anno-rect" />
           <text x="0.0" y="-350.0" class="anno-text" id="tooth-36-annotation">-</text>
        </g>
        
<g id="tooth-35-silhouette">
</g>

        <g id="tooth-35-anno-group">
           <text x="0.0" y="-470" class="anno-label">35</text>
           <rect x="-200.0" y="-400" width="400" height="100" rx="10" class="anno-rect" />
           <text x="0.0" y="-350.0" class="anno-text" id="tooth-35-annotation">-</text>
        </g>
        
<g id="tooth-34-silhouette">
</g>

        <g id="tooth-34-anno-group">
           <text x="0.0" y="-470" class="anno-label">34</text>
           <rect x="-200.0" y="-400" width="400" height="100" rx="10" class="anno-rect" />
           <text x="0.0" y="-350.0" class="anno-text" id="tooth-34-annotation">-</text>
        </g>
        
<g id="tooth-33-silhouette">
</g>

        <g id="tooth-33-anno-group">
           <text x="0.0" y="-470" class="anno-label">33</text>
           <rect x="-200.0" y="-400" width="400" height="100" rx="10" class="anno-rect" />
           <text x="0.0" y="-350.0" class="anno-text" id="tooth-33-annotation">-</text>
        </g>
        
<g id="tooth-32-silhouette">
</g>

        <g id="tooth-32-anno-group">
           <text x="0.0" y="-470" class="anno-label">32</text>
           <rect x="-200.0" y="-400" width="400" height="100" rx="10" class="anno-rect" />
           <text x="0.0" y="-350.0" class="anno-text" id="tooth-32-annotation">-</text>
        </g>
        
<g id="tooth-31-silhouette">
</g>

        <g id="tooth-31-anno-group">
           <text x="0.0" y="-470" class="anno-label">31</text>
           <rect x="-200.0" y="-400" width="400" height="100" rx="10" class="anno-rect" />
           <text x="0.0" y="-350.0" class="anno-text" id="tooth-31-annotation">-</text>
        </g>
        
<g id="tooth-41-silhouette">
</g>

        <g id="tooth-41-anno-group">
           <text x="0.0" y="-470" class="anno-label">41</text>
           <rect x="-200.0" y="-400" width="400" height="100" rx="10" class="anno-rect" />
           <text x="0.0" y="-350.0" class="anno-text" id="tooth-41-annotation">-</text>
        </g>
        
<g id="tooth-42-silhouette">
</g>

        <g id="tooth-42-anno-group">
           <text x="0.0" y="-470" class="anno-label">42</text>
           <rect x="-200.0" y="-400" width="400" height="100" rx="10" class="anno-rect" />
           <text x="0.0" y="-350.0" class="anno-text" id="tooth-42-annotation">-</text>
        </g>
        
<g id="tooth-43-silhouette">
</g>

        <g id="tooth-43-anno-group">
           <text x="0.0" y="-470" class="anno-label">43</text>
           <rect x="-200.0" y="-400" width="400" height="100" rx="10" class="anno-rect" />
           <text x="0.0" y="-350.0" class="anno-text" id="tooth-43-annotation">-</text>
        </g>
        
<g id="tooth-44-silhouette">
</g>

        <g id="tooth-44-anno-group">
           <text x="0.0" y="-470" class="anno-label">44</text>
           <rect x="-200.0" y="-400" width="400" height="100" rx="10" class="anno-rect" />
           <text x="0.0" y="-350.0" class="anno-text" id="tooth-44-annotation">-</text>
        </g>
        
<g id="tooth-45-silhouette">
</g>

        <g id="tooth-45-anno-group">
           <text x="0.0" y="-470" class="anno-label">45</text>
           <rect x="-200.0" y="-400" width="400" height="100" rx="10" class="anno-rect" />
           <text x="0.0" y="-350.0" class="anno-text" id="tooth-45-annotation">-</text>
        </g>
        
<g id="tooth-46-silhouette">
</g>

        <g id="tooth-46-anno-group">
           <text x="0.0" y="-470" class="anno-label">46</text>
           <rect x="-200.0" y="-400" width="400" height="100" rx="10" class="anno-rect" />
           <text x="0.0" y="-350.0" class="anno-text" id="tooth-46-annotation">-</text>
        </g>
        
<g id="tooth-47-silhouette">
</g>

        <g id="tooth-47-anno-group">
           <text x="0.0" y="-470" class="anno-label">47</text>
           <rect x="-200.0" y="-400" width="400" height="100" rx="10" class="anno-rect" />
           <text x="0.0" y="-350.0" class="anno-text" id="tooth-47-annotation">-</text>
        </g>
        
<g id="tooth-48-silhouette">
</g>

        <g id="tooth-48-anno-group">
           <text x="0.0" y="-470" class="anno-label">48</text>
           <rect x="-200.0" y="-400" width="400" height="100" rx="10" class="anno-rect" />
           <text x="0.0" y="-350.0" class="anno-text" id="tooth-48-annotation">-</text>
        </g>
        
<g transform="translate(148, 2700) scale(4.5)">
</g>

</svg>